<svg
      xmlns="http://www.w3.org/2000/svg"
      width="480"
      height="638.268"
      version="1.1"
      viewBox="0 0 480 638.268"
      xmlSpace="preserve"
    >
      <g transform="translate(-1512.278 -119.547)">
        <g transform="translate(554.015 -2.931)">
          <path
            fill="#ffffff"
            d="M1341.497 759.479l-1.011-1.25-1.278-5.783-1.278-5.784.917-.807.916-.807 13.833-5.795 13.833-5.794.935-2.115.935-2.115 4.373-15.315 4.372-15.315-1.64.676-1.64.676-1.43.14-1.429.138-35.644-54.914-35.644-54.913-6.427-19.363-6.427-19.363-.957-.223-.958-.224-5.871 12.872-5.872 12.873-1.862 11.127-1.862 11.128-9.574 60.5-9.573 60.5-.844 2-.843 2 1.858 14.5 1.857 14.5-.49 1.309-.49 1.308-52.96-.308-52.96-.309-1.035-1.036-1.036-1.036 1.53-9.458 1.53-9.457.739-.74.739-.738 14.744-2.21 14.745-2.209 8.57-5.058 8.572-5.058.24-7 .242-7 3.158-25.5 3.16-25.5 12.501-108.27 12.502-108.27v-6.06l-6.25.592-6.25.59-4.25.52-4.25.52.01 2.19.01 2.188-1.583 44.5-1.584 44.5-8.856 67.812-8.856 67.813-1.095 1.32-1.095 1.32 4.524 12.83 4.525 12.83v15.44l-1.75.54-1.75.54-9.791 1.561-9.791 1.561-1.001-.619-1.002-.618-8.957-11.157-8.958-11.156v-20.272l-1.5-1.245-1.5-1.245v-125.41l-6.028-44.922-6.03-44.923-.31-1-.31-1-1.537 3-1.537 3-18.553 44.58-18.552 44.581-1.497 5.92-1.496 5.919-11.678 54.5-11.678 54.5-1.916 1.676-1.915 1.675-1.552 11.325-1.552 11.324-2.415 3.5-2.416 3.5-8.412 10.624-8.411 10.623-11.711.732-11.711.732-1.389-1.388-1.388-1.389.976-10.248.977-10.249 9.084-16.46 9.084-16.462-.552-.894-.552-.894 4.974-64.863 4.974-64.864 8.515-39.164 8.514-39.163v-3.699l-2.25-.994-2.25-.995.274-2.992.275-2.993 5.633-35.969 5.634-35.968-2.235-16.829-2.235-16.828-7.543-19.013-7.544-19.012-4.13-4.88-4.129-4.88-10.327-19.206-10.328-19.205 1.078-6.187 1.077-6.187v-3.202l-11.374-6.067-11.374-6.067h-4.134l-.618 1-.618 1H989.288l-3.434-6.75-3.434-6.75-8.578-9.354-8.579-9.353v-3.3l-3.5-4.922-3.5-4.923v-3.668l9.483-18.946 9.483-18.946 5.18-1.539 5.18-1.538 5.587-1.137 5.587-1.138 11.5 3.415 11.5 3.416 11.24 16.466 11.239 16.467-.485 3-.484 3-3.021 19.986-3.021 19.987.457 1.19.456 1.19 4.687 2.074 4.686 2.073h2.656l.526-3.25.526-3.25 2.52-20.286 2.518-20.287v-1.927h3.191l3.009 2.142 3.008 2.142 26.056 4.373 26.055 4.373 33.448 19.485 33.448 19.485 1.143-.005 1.142-.005 13.895-21.541 13.895-21.542-1.33-4.028-1.33-4.027 1.28-6.176 1.28-6.175.72-10.034.72-10.034 2.097-3.966 2.097-3.966.495-1.59.496-1.591 8.237-4.286 8.238-4.285 16.254.445 16.254.444 2.351 1.652 2.351 1.651 8.874 8.327 8.874 8.327-.134 9.953-.134 9.953-1.583 17-1.583 17-10.07 10.181-10.072 10.182-8.586 3.583-8.586 3.583-1.215-.015-1.215-.014-1.085-2.028-1.085-2.028-.92.568-.92.568-2.03 6.818-2.03 6.817V238.063l3.47-3.917 3.47-3.916.864 1.29.865 1.291 1.76 13.71 1.759 13.709.531 2.75.531 2.75H1256.052l9.205-11.25 9.206-11.25 8.966-21 8.965-21-.315-7.907-.316-7.906 1.186-.406 1.187-.405 6.313 7.676 6.314 7.677 2.611 5.716 2.612 5.715 20.2 18.073 20.199 18.073 24.473 33.347 24.474 33.347 4.715 6.5 4.716 6.5.61 10 .608 10-15.514 38.5-15.514 38.5-1.214 1.333-1.214 1.333-16.13-12.13-16.132-12.13v-1.722l10.5-26.756 10.5-26.756v-2.492l-16.21-15.638-16.21-15.638-.684 1.847-.683 1.846-.679 8.451-.678 8.451 6.649 31 6.648 31-.49 5.12-.492 5.12 6.656 4.88 6.655 4.88 7.327 5.816 7.327 5.816-1.177 1.418-1.177 1.418-12.891 10.66-12.89 10.66v33.631l-2.466 2.29-2.465 2.291 2.422 24.234 2.42 24.234 1.207 2.266 1.207 2.266 3.24 5 3.242 5 19.79 32 19.791 32 8.938 14.5 8.938 14.5 4.483 6.723 4.482 6.724-.588 2.346-.59 2.346-3.616 3.724-3.616 3.724.628 1.638.628 1.637 12.962 20.699 12.962 20.698v2.021l-25.175 17.86-25.175 17.86-2.075 1.137-2.075 1.136-19 2.122-19 2.122-1.627-.008-1.628-.008-1.011-1.25z"
          ></path>
          <path
            fill="#000000"
            d="M1341.168 753.196l-1.238-5.534.917-.818.916-.819 13.701-5.745 13.701-5.746 2.006-6.152 2.005-6.153 3.644-12.85 3.644-12.85-.93-.928-.928-.93-2.542 2-2.543 2-1.496-1.72-1.497-1.722-33.989-52.5-33.99-52.5-6.892-20.87-6.894-20.87-1.293-.503-1.293-.504-.518.518-.519.519-6.458 14.16-6.459 14.162-3.613 21.694-3.613 21.694-.78 6-.782 6-3.012 18.5-3.013 18.5-4.207 26-4.207 26-.461 2.626-.462 2.626 1.671 13.097 1.671 13.096-.558.903-.558.903-51.268-.492-51.268-.492-.786-.72-.787-.72 1.182-7.413 1.181-7.414.775-1.481.774-1.481 14.422-2.118 14.423-2.117 9.636-5.671 9.637-5.672-.561-4.23-.561-4.23 3.563-29 3.562-29 1.056-9 1.055-9 4.962-43 4.962-43 2.022-17.5 2.021-17.5 4.481-38.562 4.481-38.562v-6.162l-1.25-.443-1.25-.443-9.887.827-9.888.828-1.226 1.018-1.226 1.018-.672 21.24-.672 21.241-1.008 26-1.007 26-8.512 66-8.513 66-1.35 2.5-1.348 2.5 4.905 14.385 4.904 14.386-.015 4.614-.015 4.615-.805 1.27-.806 1.268-8.929 1.464-8.929 1.463-1.661.018-1.662.017-8.584-10.75-8.584-10.75v-20.118l-1.468-1.94-1.469-1.942-.045-61.5-.045-61.5-6.462-47.892-6.463-47.892-.548-.548-.549-.549-1.343 1.44-1.344 1.441-20.5 49.5-20.498 49.5-4.256 20-4.256 20-8.329 38.384-8.329 38.384-1.937 2.116-1.938 2.116-1.193 9-1.193 9-.831 3.228-.832 3.229-9.613 12.39-9.613 12.388-4.613.633-4.613.632H1014.2l.665-9.25.666-9.25 1.233-3 1.234-3 7.307-13 7.306-13 5.205-67.679 5.206-67.679 1.603-6.82 1.604-6.822 7.022-32.664 7.02-32.664v-4.172l-1.25-.015-1.25-.016-1.28-.813-1.282-.813 6.087-37.921 6.088-37.922-2.195-17-2.196-17-7.715-19.649-7.716-19.648-4.066-4.852-4.066-4.85-10.228-18.948-10.227-18.947 1.15-7.402 1.151-7.402.569-.92.568-.92 4.93-2.498 4.929-2.498v-7.029l1.42-.544 1.418-.545 2.331 1.456 2.33 1.455 4.75 1.756 4.75 1.757v1.892l-3.522 4.3-3.524 4.3.44 21.027.44 21.027.997 1.841.997 1.841 9.62 9.416 9.621 9.416.964-.964.963-.963-5.498-29.452-5.498-29.453-1.555-7.873-1.555-7.874 2.725-23.126 2.724-23.127.754-.873.754-.873 2.998 2.135 2.998 2.135 25.864 4.277 25.864 4.277 23.965 13.863 23.965 13.863 9.877 5.897 9.877 5.897 1.593-.307 1.593-.307 13.548-20.892 13.548-20.893.982-.1.982-.099.283 10.125.284 10.124 3.716.615 3.717.614 4.054.011 4.054.011 4.712 2.988 4.712 2.988 1.139 2.5 1.139 2.5-3.155 10.949-3.155 10.949v3.126h1.876l3.231-4.5 3.232-4.5h1.66l.047.75.046.75 2.24 16.5 2.242 16.5h3.134L1266 256.057l10.021-12.171 9.125-21.526 9.124-21.525.04-6.303.038-6.303 5.408 6 5.408 6 2.594 6.081 2.594 6.081 20.038 17.795 20.038 17.795 8.613 11.624 8.613 11.624 6.974 9.5 6.973 9.5 3.72 5 3.719 5 9.966 13.728 9.966 13.727.67 9.542.671 9.541-15.416 38.196-15.417 38.196-1.132.377-1.131.377-13.234-9.951-13.235-9.952-1.298-1.564-1.297-1.564 10.558-27.003 10.56-27.003v-1.854l-16.53-16.396-16.528-16.397-1.378-.305-1.378-.306-.51.824-.509.825-1.145 9.98-1.146 9.982 6.562 30.822 6.561 30.822v8.66l-3.149 1.098-3.15 1.098h-2.923l-8.209 4.958-8.209 4.959-4.664 2-4.665 1.999.553 1.292.553 1.292 3.037 2.413 3.036 2.413 3.494-1.264 3.495-1.263.933.933.934.934-.549 1.417-.548 1.417-3.647 2.5-3.648 2.5-8.587 3.108-8.587 3.108v2.425l8 6.395 8 6.394 8.826 2.035 8.825 2.035h3.06l3.047-2.563 3.046-2.563.748 1.21.748 1.21-.544 14.103-.545 14.103-2.175 2.613-2.176 2.612.763 7.888.763 7.887 1.597 16.5 1.598 16.5 3.116 5 3.117 5 7.676 12.5 7.676 12.5 13.347 21.5 13.346 21.5 11.317 18.337 11.316 18.337 2.004 2.548 2.004 2.548v3.448l-4.1 4.659-4.1 4.658.638 1.664.638 1.663 13.094 20.91 13.094 20.909-1.882 1.779-1.882 1.778-22.75 16.096-22.749 16.095-1.754.939-1.754.939-17.65 2.096-17.65 2.097H1342.415l-1.239-5.533zM1093.65 451.323l6.887-1.332.784-1.381.783-1.381 5.061-7 5.062-7 4.23-6.25 4.23-6.25h2.48l.299 6.25.297 6.25 3.78.934 3.781.934 1.347-1.434 1.347-1.434 2.114-15 2.113-15 .213-8.213.212-8.214-.653-.653-.653-.653-11.633-4.383-11.632-4.384h-2.441l-5.142 7.75-5.143 7.75-12.055 19.955-12.055 19.955V434.896l2.078 8.138 2.078 8.138.481.778.481.779 2.191-.037 2.191-.036 6.887-1.333zm-90.887-264.859l-6-3.235-3.129-5.893-3.129-5.892-1.37-.72-1.372-.72-3.255-.614-3.256-.613-8.113 7-8.114 7-1.447-1.202-1.446-1.2-1.344-2.598-1.344-2.599 9.306-19.158 9.306-19.158 3.853-1.006 3.854-1.006 6.159-1.564 6.159-1.564 1.341.447 1.341.448 10.275 3.106 10.274 3.107 10.476 15.695 10.475 15.694v3.9l-2.687 2.805-2.687 2.805H1035.17l-8.003-4.616-8.004-4.617-.7.685-.7.684-3 8.669-3 8.668-1.5.249-1.5.248zm263.117 2.282l-12.884-.661-1.267-1.734-1.268-1.734-2.349-5.427-2.349-5.427-1.062-.017-1.063-.017-2.875 3-2.874 3h-3.328l-5.24-11.25-5.24-11.25 1.655-5.5 1.655-5.5.562-2.301.563-2.301-3.248-4.042-3.248-4.041 1.372-1.322 1.371-1.321 6.6-3.596 6.6-3.595 16.308.672 16.308.673 10.407 9.587 10.407 9.587-.696 16-.696 16-1.795 3.565-1.794 3.565-2.976 3.185-2.975 3.185-.849-.16-.849-.161z"
          ></path>
        </g>
      </g>
    </svg>