 
<svg
   width="1222.4746"
   height="343.88477"
   viewBox="0 0 1222.4746 343.88477"
   version="1.1"
   id="svg5"
  
   xmlns="http://www.w3.org/2000/svg"
   ><sodipodiNodetypes
     id="namedview7"
     pagecolor="#ffffff"
     bordercolor="#000000"
     borderopacity="0.25"
     
     showgrid="false"
      /><defs
     id="defs2" /><g
    
     id="layer1"
     transform="translate(-282.42964,-310.44569)"><g
       id="g2043"><path
         id="path1307"
         style="fill:#ffffff;fill-opacity:1;fill-rule:evenodd;stroke:#533af4;stroke-width:4.24441;stroke-dasharray:none;stroke-opacity:1"
         d="m 659.70356,319.58361 c -1.43414,0.0943 -2.80941,0.47007 -4.16981,0.91439 -90.58208,26.85465 -181.16405,53.70972 -271.74621,80.56412 -0.0318,1.14519 -0.0663,2.2903 -0.0957,3.43555 6.47995,7.91502 15.03483,20.751 21.5161,28.66495 -29.96958,14.83493 -61.66794,30.7709 -91.63744,45.606 1.07943,1.07942 3.2581,-1.39077 4.33752,-0.31134 15.58461,-1.3734 29.72652,-5.21947 45.31116,-6.59242 -2.37015,8.98541 -4.73922,17.9711 -7.10742,26.95703 -1.8211,-0.41556 -3.61643,-0.91661 -5.3489,-1.62123 -18.64783,-6.80014 -40.27927,-10.28018 -58.92573,-17.08406 l -2.97781,-0.47874 c 12.18536,11.58134 26.599,24.57134 38.76706,36.1705 14.35003,14.16999 27.38636,26.72778 41.73603,40.89814 7.58304,-6.05987 14.87125,-11.07368 22.45361,-17.13421 12.0309,9.56614 25.88597,19.22658 37.87724,28.84222 5.91894,4.78802 11.59402,9.66781 17.59447,14.35764 3.74076,2.89303 10.83297,10.10738 10.83297,10.10738 0,0 12.07266,-7.43678 15.9644,-10.61141 1.16136,-0.95386 2.24448,-1.9991 3.5552,-2.75447 l 12.0978,-7.91967 c 3.25509,0.0853 6.90653,0.91822 10.15655,1.10551 290.77244,24.52594 583.48895,49.94842 874.26095,74.47937 1.4564,0.14175 1.0993,-2.04934 2.5558,-1.90775 -0.017,-1.8551 0.1104,-3.72038 -0.2709,-5.54995 -4.5473,-32.25098 -9.0951,-64.50191 -13.6432,-96.75279 43.4636,-16.48709 86.9256,-32.97846 130.3887,-49.46679 0.8924,-0.67122 1.7839,-1.34368 2.6758,-2.01563 -24.1979,-26.15433 -48.3945,-52.30982 -72.5938,-78.46289 -0.9756,0.0924 -2.0225,0.0166 -2.9543,0.21431 -22.3615,20.64928 -44.7223,41.29934 -67.0828,61.94975 -2.325,-16.53524 -4.7383,-33.05836 -6.9976,-49.60259 -1.7035,-12.72276 -3.2627,-25.48098 -5.8989,-38.05366 -0.5149,-0.51759 -1.0302,-1.03492 -1.5468,-1.55078 -294.3307,17.08797 -588.40244,38.31843 -882.73316,55.40525 80.79179,-18.86539 161.5832,-37.73237 242.375,-56.59766 1.11606,-1.01153 2.22935,-2.02286 3.34571,-3.03516 -13.53474,-19.39358 -27.33253,-42.92988 -40.87042,-62.32126 -0.40039,0.0508 -0.80078,0.10157 -1.20117,0.15235 z m 661.56254,82.4707 c 0.791,0.003 1.582,0.005 2.373,0.008 4.7548,28.29197 9.5276,56.58152 14.2716,84.8749 0.07,0.70447 0.1403,1.40895 0.2108,2.11338 -30.4499,28.07998 -61.9362,57.97368 -92.386,86.05389 0.8746,0.81888 1.6738,1.7834 2.5947,2.51303 6.3485,1.09431 12.6973,2.18664 19.046,3.27994 26.7007,-10.19511 54.4382,-22.20303 81.1399,-32.39568 4.7506,28.40181 9.5019,56.8035 14.2539,85.20507 0.043,0.66633 -1.0559,0.13545 -1.5075,0.28314 -3.4116,-0.1007 -6.8322,-0.0436 -10.2261,-0.45678 -289.0927,-26.4439 -578.1855,-52.88608 -867.27816,-79.33026 -8.96799,5.21827 -17.93699,10.43483 -26.90429,15.65429 -7.32297,-6.735 -14.82317,-13.27427 -22.22853,-19.91843 -12.55121,-11.18824 -25.10418,-22.37451 -37.65429,-33.56399 -0.83666,0.26363 -1.77591,0.32199 -2.54772,0.71606 -7.60953,6.17759 -15.21971,12.35438 -22.82923,18.53199 -9.29205,-8.56656 -25.54402,-19.24435 -34.81972,-27.8286 6.00235,2.99466 18.67716,9.42061 24.67944,12.4154 2.32317,-5.51393 5.03183,-12.36263 7.17049,-17.95194 2.26484,-5.73009 3.94672,-9.90537 6.213,-15.63499 2.53503,1.20804 6.64446,3.05309 9.1622,4.33176 14.47386,7.5343 27.97698,14.4192 42.45038,21.95439 0.659,-0.70002 1.36905,-2.69317 1.95162,-3.43918 4.01903,-14.79525 8.04076,-29.58976 12.06368,-44.38395 5.24929,-0.49351 10.49874,-0.9853 15.74805,-1.47852 -0.76374,-5.54115 -1.48324,-11.08871 -2.42383,-16.60351 4.08382,-0.40502 8.15268,-0.99726 12.25956,-1.11222 l 851.22485,-43.84872 c 1.3307,0.004 2.6614,0.008 3.9922,0.0117 z m -463.59379,28.76758 c -36.06897,2.18309 -72.13788,4.36698 -108.20704,6.54687 -1.14489,0.90401 -2.29034,1.80732 -3.43554,2.71094 -0.44565,19.4648 -0.89786,39.01325 -1.33985,58.42578 -0.4471,14.18749 -1.2788,30.0592 -1.72848,44.2466 h 6.18555 c 1.53801,-1.98861 3.5406,-5.6197 5.02943,-7.63579 9.15479,-26.15194 18.30525,-52.30541 27.45686,-78.45847 0.46588,-0.74734 1.41535,-0.42816 2.15529,-0.5711 5.77443,-0.38158 11.54885,-0.76331 17.32323,-1.14569 11.03537,25.73289 22.45963,52.37249 33.49801,78.10408 1.55245,1.97833 3.10799,3.95422 4.66407,5.92969 h 5.05859 c 0.31312,1.34666 0.8943,2.65735 0.74475,4.06562 0.007,1.88958 0.013,3.77917 0.0189,5.66876 -3.23305,0.193 -6.51397,0.21946 -9.76544,0.3484 -11.07685,0.35159 -22.5424,-0.20517 -33.61929,0.14517 v -9.26758 c 2.44916,-0.41443 4.89863,-0.82697 7.34765,-1.24219 0.84079,-1.64179 1.68288,-3.28292 2.52539,-4.92383 -0.63691,-2.20901 -1.2672,-4.42012 -2.17811,-6.5357 -1.19046,-3.0625 -2.37673,-6.12657 -3.56798,-9.18891 -5.73001,0.11859 -11.46424,0.15362 -17.19158,0.32623 -5.2441,0.43724 -10.48809,0.87585 -15.73225,1.31245 -1.33542,3.87505 -2.75497,7.73377 -4.0422,11.61752 -0.0697,2.39303 0.64361,5.69305 0.5773,8.08617 2.37397,0.90463 4.74875,1.80714 7.12304,2.71094 0.83769,-0.11674 1.67579,-0.23039 2.51367,-0.34571 0.13266,3.02087 0.26619,6.0417 0.40039,9.0625 -11.45705,0.47596 -23.69131,0.047 -35.14837,0.52287 -0.51581,2.05713 -1.17082,4.09617 -1.59961,6.16485 -0.01,4.35195 0.23969,9.99936 0.22979,14.35132 0.84205,0.8458 1.68306,1.68772 2.52735,2.53125 37.98307,-0.17839 75.96615,-0.3539 113.94922,-0.53125 0.58884,-46.46941 0.91995,-94.23426 1.50849,-140.70367 -0.79428,-0.79427 -1.58855,-1.58854 -2.38282,-2.38281 -0.29948,0.0182 -0.59896,0.0365 -0.89843,0.0547 z m 230.91599,17.73828 c -0.2072,0.791 -0.415,1.58184 -0.6211,2.37305 -9.2011,0.37722 -18.4004,0.82103 -27.6026,1.15663 -12.0739,0.15336 -24.1477,0.30627 -36.2216,0.4586 -0.3669,-1.16024 -0.7354,-2.31997 -1.1015,-3.48047 h -13.0743 c -0.9043,1.21748 -1.8854,2.39383 -2.7415,3.63753 -4.6541,13.53263 -9.95374,28.62059 -14.60737,42.15336 3.9452,1.5585 7.87977,3.14508 11.90697,4.48326 2.5192,0.8836 5.0391,1.76496 7.5579,2.64955 2.5606,-5.0767 5.7631,-11.71024 8.3196,-16.78893 2.5852,-2.55028 5.1156,-5.17948 7.7336,-7.68199 2.5403,-1.12473 5.0571,-1.7078 7.6125,-2.76491 1.1255,-0.01 2.251,-0.0202 3.3765,-0.0284 0.3173,0.81818 0.7335,1.61881 0.586,2.52344 v 75.63547 c -0.6543,0.48377 -1.2429,1.13795 -1.9339,1.52298 -3.83,0.13157 -7.6599,0.26599 -11.4899,0.39499 -0.2324,5.78849 -0.4698,11.57678 -0.7032,17.36523 1.0059,1.00586 1.7526,3.30718 2.7585,4.31304 14.9175,0.87905 29.8345,1.79587 44.7523,2.6522 4.8827,-0.1029 9.7654,-0.205 14.6481,-0.30845 0.2896,-2.67683 0.8919,-6.63635 1.1433,-9.31071 -0.5028,-4.03678 -1.0073,-8.07335 -1.5131,-12.10975 -3.8665,-0.48448 -7.733,-0.96833 -11.5996,-1.45117 -0.62,-1.03171 -1.3834,-2.02131 -1.9129,-3.08047 -0.2035,-26.28372 -1.0547,-52.04926 -1.2583,-78.33298 0.412,-0.48349 1.1692,-0.0989 1.7358,-0.19361 1.062,0.0851 2.1803,-0.0501 3.2061,0.17711 2.3548,1.23009 4.7718,2.37994 7.089,3.65798 2.4912,2.85503 5.0349,5.67376 7.4942,8.55053 2.2101,4.17195 5.0259,7.85322 7.2612,12.00861 0.4828,0.60646 0.9586,1.21857 1.4376,1.82806 5.9566,-2.11204 11.9118,-4.2282 17.8672,-6.34375 -0.031,-1.38646 0.1217,-2.80328 -0.023,-4.17135 -4.9347,-14.32868 -9.8674,-28.65803 -14.8016,-42.98685 h -14.8887 c -0.1309,0.4974 -0.2617,0.99479 -0.3926,1.49219 z m 68.293,1.63281 c -1.4219,3.24016 -3.0028,6.41501 -4.1431,9.77054 -10.9788,29.48596 -21.9356,58.98108 -32.9249,88.46253 -1.2303,2.61485 -2.4603,5.22982 -3.6898,7.84506 -1.3509,0.58435 -2.6773,1.28199 -4.0434,1.79687 h -6.3707 l -0.2591,21.75445 c 1.4336,0.48371 2.8344,1.12235 4.2876,1.51197 14.4581,0.86432 28.9165,1.72515 43.3745,2.59154 1.1543,-0.71582 2.3085,-1.43009 3.4649,-2.14258 -0.2288,-6.5599 -0.1992,-14.41525 -0.4284,-20.97514 -3.1441,-0.41783 -6.2879,-0.8373 -9.4317,-1.25782 -0.6688,-0.55585 -1.3378,-1.11157 -2.0078,-1.66601 0.046,-1.14115 -0.1914,-2.33224 0.3767,-3.38114 1.5422,-4.23113 3.0846,-8.46213 4.6272,-12.69308 9.8308,0.12209 19.6615,0.2438 29.4922,0.36523 1.4178,0.3804 2.8358,0.75952 4.2539,1.13868 1.4964,5.19401 2.9914,10.38817 4.4883,15.58203 -0.3715,0.5915 -0.7398,1.18391 -1.1113,1.77539 -2.343,0.26815 -4.7241,0.29008 -7.0101,0.9212 -1.3724,0.30199 -2.7445,0.60517 -4.1169,0.90692 l -0.2591,21.30132 c 1.5175,0.53839 3.0003,1.23795 4.5395,1.67544 15.3744,0.88403 30.7483,1.8139 46.123,2.6671 3.6125,-0.11409 7.225,-0.22978 10.8375,-0.34254 l 0.2591,-22.34624 c -2.8973,-0.99371 -5.7937,-1.99009 -8.6894,-2.98828 -0.9455,-1.32159 -2.0389,-2.56095 -2.8938,-3.93113 -8.8595,-25.54909 -17.7405,-51.09001 -26.684,-76.60981 -3.768,-10.77599 -7.534,-21.55263 -11.3031,-32.3282 -10.0722,-0.206 -20.1446,-0.40644 -30.2168,-0.61328 -0.1803,0.40299 -0.3607,0.80599 -0.541,1.20898 z m -245.78126,-0.17187 c -9.93555,0.54999 -19.87104,1.10114 -29.80664,1.65039 -0.25704,5.79872 -1.15693,12.50447 -1.4114,18.3033 h 11.35351 l 3.11133,3.11133 c -0.35674,21.40037 -0.0645,41.89394 -0.41867,63.29435 -0.51429,0.53457 -0.93127,1.27612 -1.50235,1.6875 h -11.71445 v 18.40225 c 0.94245,0.39342 1.78719,1.13856 2.86212,1.04572 16.95412,1.16647 33.91212,2.28972 50.86358,3.48651 1.10968,0.12261 2.21924,0.24616 3.32899,0.36816 0.98264,-1.83582 1.96541,-3.67157 2.94726,-5.50781 -0.0119,-3.23763 -0.0237,-7.64118 -0.0352,-10.87881 -0.8162,-1.28348 -1.63024,-2.56809 -2.44336,-3.85352 -1.79183,-0.28107 -3.55977,-0.7802 -5.36664,-0.92152 -1.38754,-0.0395 -2.77509,-0.0789 -4.16266,-0.11754 -0.64073,-0.70949 -1.46888,-1.33827 -1.99414,-2.09609 v -19.15007 c 8.67018,-0.0124 17.34504,0.0249 26.01231,-0.0186 3.57923,-0.69635 7.18077,-2.1022 10.74567,-2.84324 3.88788,-1.9003 7.77431,-3.80358 11.65999,-5.7084 3.05445,-3.39363 6.1057,-6.79015 9.1582,-10.18554 1.12676,-3.38473 2.34621,-6.75284 3.42383,-10.14493 -0.0232,-3.74781 0.0463,-7.51216 -0.0346,-11.24969 -1.50002,-4.07987 -3.00221,-8.15896 -4.49863,-12.24015 -3.68243,-3.60985 -7.36226,-7.22236 -11.04102,-10.83594 -4.17731,-1.66708 -8.35361,-3.33669 -12.5293,-5.00781 -16.16925,-0.19344 -32.33874,-0.40462 -48.50781,-0.58984 z m -193.42383,11.74218 c -23.08592,0.41499 -46.17184,0.82994 -69.25781,1.24219 -1.72015,2.29799 -2.99211,4.88771 -4.49635,7.32626 -3.73664,6.36405 -8.02494,13.82615 -11.7603,20.19095 v 2.88867 c 3.721,1.24137 7.4279,2.5792 11.15657,3.76384 1.77526,-0.0598 3.55052,-0.1201 5.32585,-0.1779 3.19781,-3.97244 6.94652,-9.04141 10.14728,-13.01135 2.9724,-1.43217 5.94506,-2.8638 8.91796,-4.29492 4.82813,-0.19977 9.65627,-0.39931 14.48438,-0.59961 -16.16114,16.24577 -32.32058,32.49322 -48.48242,48.73828 v 12.3716 c 1.43646,0.49201 2.8377,1.15574 4.29551,1.54379 19.50353,0.84708 39.00618,1.73677 58.51035,2.55493 5.5862,-0.016 11.17239,-0.0341 16.75859,-0.0518 4.14484,-9.11605 8.28892,-19.91653 12.43555,-29.03176 v -4.50781 c -4.20952,-1.20291 -8.40755,-2.48339 -12.62344,-3.64063 h -3.56211 c -1.44078,2.82584 -2.88237,5.65127 -4.32422,8.47656 -2.0254,1.66541 -3.98314,3.43286 -6.05122,5.03421 -2.44332,1.21839 -4.85861,2.53003 -7.31778,3.69284 -5.30323,0.53028 -10.60733,1.12446 -15.90979,1.61705 -1.30745,-0.17596 -2.61498,-0.35139 -3.92238,-0.52769 15.90335,-16.31474 31.80594,-32.63022 47.71094,-48.94336 v -14.69141 c -0.67839,0.0124 -1.35677,0.0247 -2.03516,0.0371 z m -293.77734,19.73829 c -1.44727,5.5664 -2.89453,11.13281 -4.3418,16.69921 -12.89235,-9.30931 -25.78428,-18.61919 -38.67578,-27.92968 15.25652,-1.3545 30.51029,-2.75461 45.7686,-4.07982 0.52835,0.0487 1.60317,-0.33918 1.09014,0.54136 -1.28039,4.92297 -2.56077,9.84595 -3.84116,14.76893 z m 511.98899,-8.15632 h 10.45508 c 2.24017,2.40305 4.48041,4.80604 6.7207,7.20899 -0.003,2.74349 0.64273,4.70969 0.63973,7.45318 -1.14061,1.87046 -2.28123,3.7409 -3.42188,5.61133 -2.50128,1.13612 -5.00258,2.27219 -7.50391,3.40821 -5.25028,0.002 -10.52945,0.0455 -15.76171,0.0215 -0.39987,-0.69389 -0.38788,-1.45967 -0.33108,-2.23329 0.16168,-7.41571 -0.32488,-14.05416 -0.16431,-21.4699 h 9.36719 z m -149.69602,7.07038 c -2.81032,8.46166 -5.62016,16.92349 -8.43164,25.38476 0.67929,1.15035 1.35762,2.30006 2.03906,3.44922 6.39247,-0.50201 12.78534,-0.99896 19.17773,-1.50195 0.70584,-0.56093 1.41461,-1.11814 2.12305,-1.67578 -3.28083,-8.20225 -6.56341,-16.40381 -9.8457,-24.60547 -1.33966,-1.40199 -2.67467,-2.80841 -4.01172,-4.21289 -0.35026,1.05403 -0.70052,2.10807 -1.05078,3.16211 z m 385.11136,25.80859 c 1.3561,4.27083 2.7122,8.54167 4.0683,12.8125 -4.1818,-0.13208 -8.3704,-0.15812 -12.548,-0.35485 -1.5504,-0.16244 -3.1007,-0.32527 -4.6512,-0.48695 2.9565,-8.46048 5.9135,-16.92076 8.8711,-25.38085 1.4199,4.47005 2.8399,8.9401 4.2598,13.41015 z"
         sodipodiNodetypes="cccccccccccccccccccccccccccccccccccccccsccccccccccccccccccccccccccccssscccccccccccccccccccccccccccccccccccsscccccccccccccccccccccccccccccccccccccccccccccccccccccccccccccccccccccccscccccccccccccccccccccccccccssscccccccccccccccccccccccccssccccccccccccccccccccccccccccccc" /><path
         id="path612"
         style="fill:#000000"
         sodipodiType="inkscape:offset"
       
         inkscapeOriginal="M 665.53125 399.80664 L 663.36719 400.625 L 661.20312 401.44336 L 517.20312 446.68555 L 373.20312 491.92969 L 372.32812 492.73438 L 371.45508 493.53906 L 379.60156 507.75977 L 387.74609 521.97852 L 387.19727 522.5293 L 386.64844 523.07812 L 343.09766 548.2793 L 299.54688 573.48047 L 291.52539 571.01758 L 283.50586 568.55469 L 283.20117 568.87305 L 282.89844 569.19141 L 283.55078 574.87891 L 284.20312 580.56641 L 324.20312 619.61914 L 364.20312 658.67188 L 364.84961 658.68164 L 365.49609 658.69141 L 375.34961 649.69727 L 385.20312 640.70312 L 385.90234 640.69727 L 386.60156 640.69141 L 425.76953 670.19141 L 464.93945 699.69141 L 465.72266 699.69141 L 466.50781 699.69141 L 478.77148 684.94141 L 491.03711 670.19141 L 491.11914 670.03906 L 491.20312 669.88672 L 937.20117 706.67383 L 937.20312 706.67383 L 1383.2012 743.45898 L 1384.4512 743.57617 L 1385.7012 743.69141 L 1385.668 741.94141 L 1385.6367 740.19141 L 1378.332 689.34766 L 1371.0273 638.50391 L 1374.1152 637.08203 L 1377.2031 635.6582 L 1440.5371 611.25586 L 1503.873 586.85352 L 1504.3887 586.33789 L 1504.9043 585.82227 L 1462.6836 540.67188 L 1420.4629 495.51953 L 1416.832 498.9375 L 1413.2031 502.35547 L 1386.3848 527.62305 L 1359.5684 552.89062 L 1359.2188 552.54102 L 1358.8691 552.19141 L 1355.2656 526.69141 L 1351.6621 501.19141 L 1351.1992 499.08203 L 1350.7344 496.97266 L 1368.9688 484.15625 L 1387.2031 471.33789 L 1387.6191 471.01562 L 1388.0352 470.69141 L 1387.4863 470.14258 L 1386.9395 469.5957 L 1374.5703 470.5918 L 1362.2031 471.58984 L 1348.7031 472.19336 L 1335.2031 472.79688 L 1310.2031 474.25 L 1285.2031 475.70117 L 1250.2012 477.69336 L 1215.2031 479.68555 L 1153.7031 483.17773 L 1092.2031 486.67188 L 976.70312 493.17773 L 861.20312 499.68555 L 700.74609 508.64844 L 540.28906 517.61133 L 540.05273 517.375 L 539.81641 517.13867 L 618.00977 502.79492 L 696.20312 488.45312 L 707.00977 486.44531 L 717.81836 484.4375 L 717.20703 482.8457 L 716.5957 481.25195 L 691.06445 440.5293 L 665.53125 399.80664 z M 657.94922 415.19141 L 677.4043 443.0625 L 696.86133 470.93164 L 696.03125 471.68359 L 695.20312 472.43555 L 572.20312 501.1582 L 449.20312 529.88086 L 448.28516 530.75391 L 447.36719 531.62695 L 449.19336 532.32617 L 451.01953 533.02734 L 893.50781 507.33984 L 1335.998 481.65234 L 1336.4844 482.14062 L 1336.9727 482.62891 L 1343.3125 527.30078 L 1349.6523 571.97461 L 1349.9277 572.22461 L 1350.2031 572.47461 L 1384.7031 540.61328 L 1419.2031 508.75391 L 1419.8145 508.72266 L 1420.4277 508.69141 L 1455.6543 546.76758 L 1490.8828 584.84375 L 1490.543 585.09961 L 1490.2031 585.35547 L 1424.7031 610.20703 L 1359.2031 635.05664 L 1358.9062 635.25391 L 1358.6094 635.45117 L 1365.6562 685.42969 L 1372.7031 735.40625 L 1372.7031 736.04883 L 1372.7012 736.04883 L 1372.7012 736.69141 L 1371.4512 736.57031 L 1370.2012 736.44922 L 933.70117 699.63672 L 497.20117 662.82227 L 492.42773 662.75781 L 487.6543 662.69141 L 472.82617 672.60742 L 458 682.52344 L 428.60156 659.00195 L 399.20117 635.47852 L 395.69336 632.69141 L 392.18359 629.90625 L 380.88477 638.93945 L 369.58594 647.97461 L 348.39453 627.04883 L 327.20117 606.12305 L 309.94336 589.74805 L 292.68555 573.375 L 293.00391 573.05469 L 293.32422 572.73633 L 321.96484 583.18359 L 350.60547 593.62891 L 353.1543 594.26953 L 355.70117 594.9082 L 355.70508 594.55078 L 355.70898 594.19141 L 359.65625 579.22461 L 363.60352 564.25781 L 363.14844 563.80469 L 362.69336 563.34961 L 338.95312 565.44141 L 315.21094 567.5332 L 314.90625 567.22852 L 314.60156 566.92578 L 359.15234 544.87305 L 403.70312 522.82031 L 403.70312 522.33594 L 403.70312 521.85352 L 393.70312 509.64258 L 383.70312 497.43164 L 383.71875 496.8125 L 383.73633 496.19141 L 519.96875 455.80273 L 656.20312 415.41406 L 657.07617 415.30273 L 657.94922 415.19141 z M 1315.2031 493.66602 L 887.70312 515.6875 L 460.20312 537.70898 L 454.83789 538.28711 L 449.47461 538.86328 L 450.14062 543.02734 L 450.80664 547.19141 L 451.37305 551.3125 L 451.93945 555.43359 L 444.32031 556.14844 L 436.70312 556.86133 L 436.70312 557.19727 L 436.70312 557.5332 L 430.63867 579.8418 L 424.57617 602.15039 L 424.28906 602.4375 L 424.00391 602.72266 L 398.99805 589.70703 L 373.99219 576.69141 L 373.02148 576.69141 L 372.05273 576.69141 L 367.20898 588.94141 L 362.36719 601.19141 L 360.56055 605.46094 L 358.75586 609.73242 L 344.47852 602.61133 L 330.20312 595.49023 L 331.20312 596.42578 L 332.20312 597.36133 L 347.70312 611.7207 L 363.20312 626.08008 L 366.35156 628.98438 L 369.50195 631.88867 L 381.49219 622.15625 L 393.48438 612.42188 L 393.95117 612.30664 L 394.41797 612.19141 L 421.81055 636.60742 L 449.20312 661.02344 L 451.89062 663.48633 L 454.58008 665.94727 L 468.39062 657.91211 L 482.20312 649.87695 L 917.20117 689.66602 L 917.20312 689.66602 L 1352.2012 729.45508 L 1357.4512 729.57227 L 1362.7012 729.69141 L 1362.7344 728.44141 L 1362.7656 727.19141 L 1355.5723 684.19141 L 1348.3789 641.19141 L 1347.7637 640.46484 L 1347.1484 639.73828 L 1306.6758 655.18945 L 1266.2031 670.64258 L 1257.2129 669.0957 L 1248.2246 667.54688 L 1247.9375 667.25977 L 1247.6504 666.97266 L 1292.9258 625.2207 L 1338.2031 583.4668 L 1338.0391 581.83008 L 1337.875 580.19141 L 1330.5996 536.94141 L 1323.3242 493.69141 L 1319.2637 493.67773 L 1315.2031 493.66602 z M 855.78516 526.44141 L 856.35938 527.01562 L 856.93555 527.58984 L 856.06836 595.89062 L 855.20312 664.19141 L 799.62695 664.44922 L 744.05273 664.70898 L 743.37695 664.0332 L 742.70312 663.35742 L 742.7168 657.27539 L 742.73047 651.19141 L 743.30469 649.04492 L 743.88086 646.89844 L 761.33398 646.17188 L 778.78711 645.44531 L 778.49414 638.81836 L 778.20312 632.19141 L 776.11133 632.47656 L 774.02148 632.76367 L 771.36133 631.75195 L 768.70312 630.74023 L 768.7793 627.9668 L 768.85742 625.19141 L 770.61133 620.19141 L 772.36523 615.19141 L 779.7832 614.57227 L 787.20312 613.95312 L 794.83594 613.82227 L 802.4707 613.69141 L 804.50781 618.94141 L 806.54688 624.19141 L 806.98828 625.69141 L 807.43164 627.19141 L 806.58008 628.85156 L 805.72852 630.51172 L 801.71484 631.18945 L 797.70312 631.86719 L 797.70312 638.37891 L 797.70312 644.88867 L 820.45312 644.16992 L 843.20312 643.44922 L 843.95312 643.01172 L 844.70312 642.57422 L 844.68945 638.38281 L 844.67578 634.19141 L 844.07227 631.94141 L 843.46875 629.69141 L 840.6582 629.69141 L 837.84766 629.69141 L 835.89648 627.21289 L 833.94727 624.73242 L 817.16406 585.60352 L 800.38281 546.47461 L 789.79297 547.17578 L 779.20312 547.875 L 778.54492 548.5332 L 777.88672 549.19141 L 764.12305 588.52539 L 750.35742 627.85938 L 748.45703 630.27539 L 746.55664 632.69141 L 744.98242 632.69141 L 743.40625 632.69141 L 744.04297 612.44141 L 744.67969 592.19141 L 745.33984 563.44141 L 746 534.68945 L 747.10156 533.82031 L 748.20312 532.95117 L 801.99414 529.69727 L 855.78516 526.44141 z M 1088.5156 542.69141 L 1094.4746 542.69141 L 1100.4355 542.69141 L 1107.5801 563.44141 L 1114.7246 584.19141 L 1114.7129 585.3125 L 1114.7031 586.43164 L 1107.1035 589.13086 L 1099.5039 591.82812 L 1099.2539 591.50977 L 1099.002 591.19141 L 1095.6895 584.89648 L 1092.377 578.60352 L 1088.418 574.10547 L 1084.459 569.60742 L 1080.4844 567.58008 L 1076.5098 565.55273 L 1073.5918 565.46875 L 1070.6738 565.38672 L 1069.9551 566.10547 L 1069.2363 566.82422 L 1069.5469 607.00781 L 1069.8574 647.19141 L 1071.2227 649.31836 L 1072.5879 651.44727 L 1078.082 652.13281 L 1083.5742 652.82031 L 1084.2266 658.03516 L 1084.877 663.25 L 1084.5391 666.2207 L 1084.2031 669.19141 L 1077.7031 669.32812 L 1071.2031 669.46484 L 1049.3359 668.16211 L 1027.4707 666.85938 L 1026.5391 665.92773 L 1025.6094 664.99805 L 1025.9062 657.68164 L 1026.2031 650.36328 L 1031.4121 650.18359 L 1036.6211 650.00391 L 1038.1621 648.72461 L 1039.7031 647.44727 L 1039.7031 608.15039 L 1039.7031 568.85547 L 1039.0957 567.27344 L 1038.4883 565.69141 L 1035.8457 565.71289 L 1033.2031 565.73633 L 1029.041 567.625 L 1024.8789 569.51367 L 1020.8164 573.57812 L 1016.752 577.64062 L 1013.2402 584.61719 L 1009.7266 591.5918 L 1004.4648 589.74805 L 999.20312 587.90234 L 996.48633 586.83398 L 993.77148 585.76758 L 1000.4023 566.47852 L 1007.0352 547.19141 L 1007.9922 545.94141 L 1008.9473 544.69141 L 1014.2578 544.69141 L 1019.5684 544.69141 L 1020.123 546.44141 L 1020.6777 548.19141 L 1039.9395 547.94727 L 1059.2031 547.70117 L 1073.3613 547.09766 L 1087.5215 546.49219 L 1088.0176 544.5918 L 1088.5156 542.69141 z M 1156.6973 544.63477 L 1170.4492 544.91406 L 1184.2031 545.19141 L 1195.7383 578.19141 L 1207.2754 611.19141 L 1214.5879 632.24609 L 1221.8984 653.30078 L 1223.5898 655.54102 L 1225.2793 657.78125 L 1229.2402 659.14453 L 1233.2031 660.50586 L 1233.2031 669.34961 L 1233.2012 678.19141 L 1228.7012 678.33398 L 1224.2012 678.47656 L 1201.334 677.14648 L 1178.4668 675.81445 L 1177.084 675.28516 L 1175.7031 674.75391 L 1175.7031 666.24219 L 1175.7031 657.73047 L 1177.9531 657.23438 L 1180.2031 656.74023 L 1183.1016 656.4668 L 1186 656.19141 L 1187.0547 654.50781 L 1188.1094 652.82227 L 1185.584 644.06055 L 1183.0605 635.29688 L 1180.2656 634.55078 L 1177.4707 633.80273 L 1162.0566 633.61133 L 1146.6406 633.41992 L 1146.334 633.80664 L 1146.0293 634.19141 L 1143.3652 641.49805 L 1140.7031 648.80664 L 1140.7031 650.62695 L 1140.7031 652.44727 L 1142.2891 653.76367 L 1143.875 655.08008 L 1148.0391 655.63672 L 1152.2031 656.19141 L 1152.4961 664.60547 L 1152.7891 673.01953 L 1151.8184 673.61914 L 1150.8496 674.21875 L 1129.5254 672.94531 L 1108.2031 671.67188 L 1106.9531 671.21289 L 1105.7031 670.75391 L 1105.7031 662.22266 L 1105.7031 653.69141 L 1108.1543 653.69141 L 1110.6074 653.69141 L 1113.1113 652.55078 L 1115.6133 651.41016 L 1117.6523 647.07422 L 1119.6914 642.73828 L 1136.7227 596.96484 L 1153.7559 551.19141 L 1155.2266 547.91406 L 1156.6973 544.63477 z M 909.20312 545.64062 L 933.20312 545.93555 L 957.20312 546.23047 L 963.10742 548.5918 L 969.01367 550.95117 L 974.23047 556.07227 L 979.44727 561.19141 L 981.57422 566.97852 L 983.70312 572.76758 L 983.70312 578.05078 L 983.70312 583.33594 L 982.10938 588.00781 L 980.51758 592.67969 L 976.20508 597.47656 L 971.89258 602.27344 L 966.31445 605.00586 L 960.73438 607.73633 L 955.58203 608.71484 L 950.42969 609.69141 L 936.56641 609.69141 L 922.70312 609.69141 L 922.70312 621.12109 L 922.70312 632.54883 L 924.27344 634.12109 L 925.8457 635.69141 L 928.52344 635.76758 L 931.20312 635.84375 L 933.10156 636.20117 L 935.00195 636.55859 L 935.83594 637.875 L 936.67188 639.19141 L 936.6875 643.50781 L 936.70312 647.82227 L 935.66797 649.75781 L 934.63281 651.69141 L 933.41797 651.55664 L 932.20312 651.42188 L 906.70312 649.68164 L 881.20312 647.94336 L 880.95312 647.81641 L 880.70312 647.69141 L 880.70312 640.69141 L 880.70312 633.69141 L 886.08008 633.69141 L 891.45703 633.69141 L 892.68164 632.21484 L 893.9082 630.74023 L 894.45312 597.86328 L 895 564.98828 L 892.85156 562.83984 L 890.70312 560.69141 L 885.65625 560.69141 L 880.61133 560.69141 L 880.90625 553.94141 L 881.20312 547.19141 L 895.20312 546.41602 L 909.20312 545.64062 z M 715.70312 557.38672 L 715.70312 563.30664 L 715.70312 569.22656 L 690.74219 594.83203 L 665.78125 620.43945 L 669.88477 620.98828 L 673.98633 621.53906 L 682.24219 620.6875 L 690.5 619.83594 L 694.4668 617.81055 L 698.43555 615.78711 L 701.61328 613.11328 L 704.78906 610.43945 L 706.76562 606.56641 L 708.74219 602.69141 L 709.81836 602.69141 L 710.89453 602.69141 L 716.29883 604.26172 L 721.70312 605.83398 L 721.70312 607.11914 L 721.70312 608.40625 L 715.83984 621.29883 L 709.97852 634.19141 L 702.08984 634.21484 L 694.20312 634.24023 L 665.20312 632.9668 L 636.20312 631.69141 L 634.95312 631.22266 L 633.70312 630.75391 L 633.70312 626.51758 L 633.70312 622.2793 L 659.45312 596.39258 L 685.20312 570.50586 L 675.20312 570.91992 L 665.20312 571.33398 L 660.35547 573.66797 L 655.50977 576.00195 L 650.85547 581.77734 L 646.20312 587.55273 L 644.13086 587.62305 L 642.05859 587.69141 L 637.38086 586.09766 L 632.70312 584.50391 L 632.70312 584.04688 L 632.70312 583.58984 L 639.86719 571.39062 L 647.03125 559.19141 L 647.24023 558.90234 L 647.44922 558.61133 L 681.57617 558 L 715.70312 557.38672 z M 428.49023 557.69141 L 426.3457 557.75977 L 424.20312 557.82812 L 399.83398 560.00977 L 375.4668 562.19141 L 375.66602 563.19141 L 375.86719 564.19141 L 396.96484 579.42773 L 418.0625 594.66406 L 418.61328 594.11523 L 419.16211 593.56445 L 423.82617 575.62891 L 428.49023 557.69141 z M 923.20312 564.19141 L 922.91992 577.13867 L 922.63867 590.08594 L 923.13867 591.38867 L 923.63867 592.69141 L 932.41992 592.66992 L 941.20117 592.64844 L 945.43164 590.72852 L 949.66016 588.80859 L 951.67773 585.5 L 953.69336 582.19141 L 953.69727 577.40234 L 953.70312 572.61328 L 949.77734 568.40234 L 945.84961 564.19141 L 934.52734 564.19141 L 923.20312 564.19141 z M 413.75 565.49805 L 411.62109 570.84375 L 409.49023 576.19141 L 408.99023 577.44141 L 408.48828 578.69141 L 407.3457 578.59766 L 406.20312 578.50391 L 397.39844 573.1875 L 388.5957 567.87305 L 396.39844 567.24023 L 404.20312 566.60938 L 408.97656 566.05273 L 413.75 565.49805 z M 353.81641 570.47266 L 354.20703 570.86328 L 354.59961 571.25586 L 353.5 575.5918 L 352.39844 579.92773 L 347.85547 582.81055 L 343.31055 585.69141 L 341.75586 585.62305 L 340.20312 585.55469 L 323.01367 580.37305 L 305.82422 575.19141 L 305.29102 574.63672 L 304.75781 574.08203 L 329.28711 572.27734 L 353.81641 570.47266 z M 786.08203 574.66992 L 786.80664 575.43164 L 787.5332 576.19141 L 792.10547 587.61914 L 796.67969 599.04883 L 796.44141 599.23633 L 796.20312 599.42578 L 787.53906 600.10352 L 778.87695 600.78125 L 778.40625 599.98633 L 777.9375 599.19141 L 782.00977 586.93164 L 786.08203 574.66992 z M 1165.6367 582.35742 L 1164.6426 583.35156 L 1163.6465 584.34766 L 1158.6738 598.57227 L 1153.7031 612.79883 L 1153.7031 613.18359 L 1153.7031 613.57031 L 1157.4531 613.96289 L 1161.2031 614.35547 L 1167.8926 614.52344 L 1174.584 614.69141 L 1175.0859 613.87891 L 1175.5898 613.06445 L 1171.2012 599.24219 L 1166.8105 585.41797 L 1166.2246 583.88867 L 1165.6367 582.35742 z "
         d="m 665.53125,399.80664 -2.16406,0.81836 -2.16407,0.81836 -144,45.24219 -144,45.24414 -0.875,0.80469 -0.87304,0.80468 8.14648,14.22071 8.14453,14.21875 -0.54882,0.55078 -0.54883,0.54882 -43.55078,25.20118 -43.55078,25.20117 -8.02149,-2.46289 -8.01953,-2.46289 -0.30469,0.31836 -0.30273,0.31836 0.65234,5.6875 0.65234,5.6875 40,39.05273 40,39.05274 0.64649,0.01 0.64648,0.01 9.85352,-8.99414 9.85351,-8.99415 0.69922,-0.006 0.69922,-0.006 39.16797,29.5 39.16992,29.5 h 0.78321 0.78515 l 12.26367,-14.75 12.26563,-14.75 0.082,-0.15235 0.084,-0.15234 445.99805,36.78711 h 0.002 l 445.99808,36.78515 1.25,0.11719 1.25,0.11524 -0.033,-1.75 -0.031,-1.75 -7.3047,-50.84375 -7.3047,-50.84375 3.0879,-1.42188 3.0879,-1.42383 63.334,-24.40234 63.3359,-24.40234 0.5157,-0.51563 0.5156,-0.51562 -42.2207,-45.15039 -42.2207,-45.15235 -3.6309,3.41797 -3.6289,3.41797 -26.8183,25.26758 -26.8164,25.26757 -0.3496,-0.3496 -0.3497,-0.34961 -3.6035,-25.5 -3.6035,-25.5 -0.4629,-2.10938 -0.4648,-2.10937 18.2344,-12.81641 18.2343,-12.81836 0.416,-0.32227 0.4161,-0.32421 -0.5489,-0.54883 -0.5468,-0.54688 -12.3692,0.9961 -12.3672,0.99804 -13.5,0.60352 -13.5,0.60352 -25,1.45312 -25,1.45117 -35.0019,1.99219 -34.9981,1.99219 -61.5,3.49218 -61.5,3.49415 -115.49998,6.50585 -115.5,6.50782 -160.45703,8.96289 -160.45703,8.96289 -0.23633,-0.23633 -0.23632,-0.23633 78.19336,-14.34375 78.19335,-14.3418 10.80665,-2.00781 10.80859,-2.00781 -0.61133,-1.5918 -0.61133,-1.59375 -25.53125,-40.72265 z m -7.58203,15.38477 19.45508,27.87109 19.45703,27.86914 -0.83008,0.75195 -0.82813,0.75196 -123,28.72265 -123,28.72266 -0.91796,0.87305 -0.91797,0.87304 1.82617,0.69922 1.82617,0.70117 442.48828,-25.6875 442.49019,-25.6875 0.4864,0.48828 0.4883,0.48829 6.3398,44.67187 6.3398,44.67383 0.2754,0.25 0.2754,0.25 34.5,-31.86133 34.5,-31.85937 0.6114,-0.0312 0.6132,-0.0312 35.2266,38.07617 35.2285,38.07617 -0.3398,0.25586 -0.3399,0.25586 -65.5,24.85156 -65.5,24.84961 -0.2969,0.19727 -0.2968,0.19726 7.0468,49.97852 7.0469,49.97656 v 0.64258 h -0 v 0.64258 l -1.25,-0.1211 -1.25,-0.12109 -436.50003,-36.8125 -436.5,-36.81445 -4.77344,-0.0645 -4.77343,-0.0664 -14.82813,9.91601 -14.82617,9.91602 -29.39844,-23.52149 -29.40039,-23.52343 -3.50781,-2.78711 -3.50977,-2.78516 -11.29882,9.0332 -11.29883,9.03516 -21.19141,-20.92578 -21.19336,-20.92578 -17.25781,-16.375 -17.25781,-16.37305 0.31836,-0.32031 0.32031,-0.31836 28.64062,10.44726 28.64063,10.44532 2.54883,0.64062 2.54687,0.63867 0.004,-0.35742 0.004,-0.35937 3.94727,-14.9668 3.94727,-14.9668 -0.45508,-0.45312 -0.45508,-0.45508 -23.74024,2.0918 -23.74218,2.09179 -0.30469,-0.30468 -0.30469,-0.30274 44.55078,-22.05273 44.55078,-22.05274 v -0.48437 -0.48242 l -10,-12.21094 -10,-12.21094 0.0156,-0.61914 0.0176,-0.62109 136.23242,-40.38868 136.23437,-40.38867 0.87305,-0.11133 z m 657.25388,78.47461 -427.49998,22.02148 -427.5,22.02148 -5.36523,0.57813 -5.36328,0.57617 0.66601,4.16406 0.66602,4.16407 0.56641,4.12109 0.5664,4.12109 -7.61914,0.71485 -7.61719,0.71289 v 0.33594 0.33593 l -6.06445,22.3086 -6.0625,22.30859 -0.28711,0.28711 -0.28515,0.28516 -25.00586,-13.01563 -25.00586,-13.01562 h -0.97071 -0.96875 l -4.84375,12.25 -4.84179,12.25 -1.80664,4.26953 -1.80469,4.27148 -14.27734,-7.12109 -14.2754,-7.1211 1,0.93555 1,0.93555 15.5,14.35937 15.5,14.35938 3.14844,2.9043 3.15039,2.90429 11.99024,-9.73242 11.99219,-9.73437 0.46679,-0.11524 0.4668,-0.11523 27.39258,24.41601 27.39257,24.41602 2.6875,2.46289 2.68946,2.46094 13.81054,-8.03516 13.8125,-8.03516 434.99805,39.78907 h 0.002 l 434.99808,39.78906 5.25,0.11719 5.25,0.11914 0.033,-1.25 0.031,-1.25 -7.1933,-43 -7.1934,-43 -0.6152,-0.72657 -0.6153,-0.72656 -40.4726,15.45117 -40.4727,15.45313 -8.9902,-1.54688 -8.9883,-1.54882 -0.2871,-0.28711 -0.2871,-0.28711 45.2754,-41.75196 45.2773,-41.7539 -0.164,-1.63672 -0.1641,-1.63867 -7.2754,-43.25 -7.2754,-43.25 -4.0605,-0.0137 z m -459.41794,32.77539 0.57422,0.57421 0.57617,0.57422 -0.86719,68.30078 -0.86524,68.30079 -55.57617,0.25781 -55.57422,0.25976 -0.67578,-0.67578 -0.67383,-0.67578 0.0137,-6.08203 0.0137,-6.08398 0.57422,-2.14649 0.57617,-2.14648 17.45312,-0.72656 17.45313,-0.72657 -0.29297,-6.62695 -0.29102,-6.62695 -2.09179,0.28515 -2.08985,0.28711 -2.66015,-1.01172 -2.65821,-1.01172 0.0762,-2.77343 0.0781,-2.77539 1.75391,-5 1.7539,-5 7.41797,-0.61914 7.41992,-0.61915 7.63282,-0.13085 7.63476,-0.13086 2.03711,5.25 2.03907,5.25 0.4414,1.5 0.44336,1.5 -0.85156,1.66015 -0.85156,1.66016 -4.01368,0.67773 -4.01172,0.67774 v 6.51172 6.50976 l 22.75,-0.71875 22.75,-0.7207 0.75,-0.4375 0.75,-0.4375 -0.0137,-4.19141 -0.0137,-4.1914 -0.60351,-2.25 -0.60352,-2.25 h -2.81055 -2.81054 l -1.95118,-2.47852 -1.94921,-2.48047 -16.78321,-39.1289 -16.78125,-39.12891 -10.58984,0.70117 -10.58985,0.69922 -0.6582,0.6582 -0.6582,0.65821 -13.76367,39.33398 -13.76563,39.33399 -1.90039,2.41601 -1.90039,2.41602 h -1.57422 -1.57617 l 0.63672,-20.25 0.63672,-20.25 0.66015,-28.75 0.66016,-28.75196 1.10156,-0.86914 1.10156,-0.86914 53.79102,-3.2539 z m 232.73044,16.25 h 5.959 5.9609 l 7.1446,20.75 7.1445,20.75 -0.012,1.12109 -0.01,1.11914 -7.5996,2.69922 -7.5996,2.69726 -0.25,-0.31835 -0.2519,-0.31836 -3.3125,-6.29493 -3.3125,-6.29296 -3.959,-4.49805 -3.959,-4.49805 -3.9746,-2.02734 -3.9746,-2.02735 -2.918,-0.084 -2.918,-0.082 -0.7187,0.71875 -0.7188,0.71875 0.3106,40.18359 0.3105,40.1836 1.3653,2.12695 1.3652,2.12891 5.4941,0.68554 5.4922,0.6875 0.6524,5.21485 0.6504,5.21484 -0.3379,2.9707 -0.336,2.97071 -6.5,0.13671 -6.5,0.13672 -21.8672,-1.30273 -21.8652,-1.30273 -0.9316,-0.93165 -0.9297,-0.92968 0.2968,-7.31641 0.2969,-7.31836 5.209,-0.17969 5.209,-0.17968 1.541,-1.2793 1.541,-1.27734 v -39.29688 -39.29492 l -0.6074,-1.58203 -0.6074,-1.58203 -2.6426,0.0215 -2.6426,0.0234 -4.1621,1.88867 -4.1621,1.88867 -4.0625,4.06445 -4.0644,4.0625 -3.5118,6.97657 -3.5136,6.97461 -5.2618,-1.84375 -5.26168,-1.84571 -2.71679,-1.06836 -2.71485,-1.0664 6.63082,-19.28906 6.6329,-19.28711 0.957,-1.25 0.9551,-1.25 h 5.3105 5.3106 l 0.5546,1.75 0.5547,1.75 19.2618,-0.24414 19.2636,-0.2461 14.1582,-0.60351 14.1602,-0.60547 0.4961,-1.90039 z m 68.1817,1.94336 13.7519,0.27929 13.7539,0.27735 11.5352,33 11.5371,33 7.3125,21.05468 7.3105,21.05469 1.6914,2.24024 1.6895,2.24023 3.9609,1.36328 3.9629,1.36133 v 8.84375 l -0,8.8418 -4.5,0.14257 -4.5,0.14258 -22.8672,-1.33008 -22.8672,-1.33203 -1.3828,-0.52929 -1.3809,-0.53125 v -8.51172 -8.51172 l 2.25,-0.49609 2.25,-0.49415 2.8985,-0.27343 2.8984,-0.27539 1.0547,-1.6836 1.0547,-1.68554 -2.5254,-8.76172 -2.5235,-8.76367 -2.7949,-0.7461 -2.7949,-0.74805 -15.4141,-0.1914 -15.416,-0.19141 -0.3066,0.38672 -0.3047,0.38477 -2.6641,7.30664 -2.6621,7.30859 v 1.82031 1.82032 l 1.586,1.3164 1.5859,1.31641 4.1641,0.55664 4.164,0.55469 0.293,8.41406 0.293,8.41406 -0.9707,0.59961 -0.9688,0.59961 -21.3242,-1.27344 -21.3223,-1.27343 -1.25,-0.45899 -1.25,-0.45898 v -8.53125 -8.53125 h 2.4512 2.4531 l 2.5039,-1.14063 2.502,-1.14062 2.039,-4.33594 2.0391,-4.33594 17.0313,-45.77344 17.0332,-45.77343 1.4707,-3.27735 z m -247.49418,1.00585 24,0.29493 24,0.29492 5.9043,2.36133 5.90625,2.35937 5.2168,5.1211 5.2168,5.11914 2.12695,5.78711 2.1289,5.78906 v 5.2832 5.28516 l -1.59374,4.67187 -1.5918,4.67188 -4.3125,4.79687 -4.3125,4.79688 -5.57813,2.73242 -5.58007,2.73047 -5.15235,0.97851 -5.15234,0.97657 h -13.86328 -13.86329 v 11.42968 11.42774 l 1.57032,1.57226 1.57226,1.57032 2.67774,0.0762 2.67968,0.0762 1.89844,0.35742 1.90039,0.35742 0.83399,1.31641 0.83594,1.31641 0.0156,4.3164 0.0156,4.31446 -1.03515,1.93554 -1.03516,1.9336 -1.21484,-0.13477 -1.21485,-0.13476 -25.5,-1.74024 -25.5,-1.73828 -0.25,-0.12695 -0.25,-0.125 v -7 -7 h 5.37696 5.37695 l 1.22461,-1.47657 1.22656,-1.47461 0.54492,-32.87695 0.54688,-32.875 -2.14844,-2.14844 -2.14844,-2.14843 h -5.04687 -5.04492 l 0.29492,-6.75 0.29687,-6.75 14,-0.77539 z m -193.5,11.7461 v 5.91992 5.91992 l -24.96093,25.60547 -24.96094,25.60742 4.10352,0.54883 4.10156,0.55078 8.25586,-0.85156 8.25781,-0.85156 3.9668,-2.02539 3.96875,-2.02344 3.17773,-2.67383 3.17578,-2.67383 1.97656,-3.87304 1.97657,-3.875 h 1.07617 1.07617 l 5.4043,1.57031 5.40429,1.57226 v 1.28516 1.28711 l -5.86328,12.89258 -5.86132,12.89258 -7.88868,0.0234 -7.88672,0.0254 -29,-1.27343 -29,-1.27539 -1.25,-0.46875 -1.25,-0.46875 v -4.23633 -4.23828 l 25.75,-25.88672 25.75,-25.88672 -10,0.41406 -10,0.41406 -4.84765,2.33399 -4.8457,2.33398 -4.6543,5.77539 -4.65235,5.77539 -2.07226,0.0703 -2.07227,0.0684 -4.67773,-1.59375 -4.67774,-1.59375 v -0.45703 -0.45704 l 7.16407,-12.19922 7.16406,-12.19921 0.20898,-0.28907 0.20899,-0.29101 L 681.57617,558 Z m -287.21289,0.30469 -2.14453,0.0684 -2.14258,0.0684 -24.36914,2.18165 -24.36718,2.18164 0.19922,1 0.20117,1 21.09765,15.23632 21.09766,15.23633 0.55078,-0.54883 0.54883,-0.55078 4.66406,-17.93554 z m 494.71289,6.5 -0.2832,12.94726 -0.28125,12.94727 0.5,1.30273 0.5,1.30274 8.78125,-0.0215 8.78125,-0.0215 4.23047,-1.91992 4.22852,-1.91993 2.01757,-3.30859 2.01563,-3.30859 0.004,-4.78907 0.006,-4.78906 -3.92578,-4.21094 -3.92773,-4.21093 h -11.32227 z m -509.45312,1.30664 -2.12891,5.3457 -2.13086,5.34766 -0.5,1.25 -0.50195,1.25 -1.14258,-0.0937 -1.14258,-0.0937 -8.80468,-5.31641 -8.80274,-5.31445 7.80274,-0.63282 7.80468,-0.63085 4.77344,-0.55665 z m -59.93359,4.97461 0.39062,0.39062 0.39258,0.39258 -1.09961,4.33594 -1.10156,4.33593 -4.54297,2.88282 -4.54492,2.88086 -1.55469,-0.0684 -1.55274,-0.0684 -17.18945,-5.18164 -17.18945,-5.18164 -0.5332,-0.55469 -0.53321,-0.55469 24.5293,-1.80469 z m 432.26562,4.19726 0.72461,0.76172 0.72656,0.75977 4.57227,11.42773 4.57422,11.42969 -0.23828,0.1875 -0.23829,0.18945 -8.66406,0.67774 -8.66211,0.67773 -0.4707,-0.79492 -0.46875,-0.79492 4.07227,-12.25977 z m 379.55467,7.6875 -0.9941,0.99414 -0.9961,0.9961 -4.9727,14.22461 -4.9707,14.22656 v 0.38476 0.38672 l 3.75,0.39258 3.75,0.39258 6.6895,0.16797 6.6914,0.16797 0.5019,-0.8125 0.5039,-0.81446 -4.3886,-13.82226 -4.3907,-13.82422 -0.5859,-1.5293 z"
         transform="translate(0,-89.360947)" /></g></g></svg>
