
<svg
   width="1221.2568"
   height="343.04523"
   viewBox="0 0 1221.2568 343.04523"
   version="1.0"
   id="svg5"
   xmlns="http://www.w3.org/2000/svg"
   >
     <g
     id="layer1"
     transform="translate(-419.28416,-205.51435)"><path
       style="fill:#000000"
       d="M 1073.3512,511.65355 C 828.05116,491.42117 627.31393,474.93588 627.26842,475.01958 c -0.95631,1.75889 -24.84637,29.65217 -25.39651,29.65217 -0.43133,0 -18.4103,-13.275 -39.95328,-29.5 -21.54297,-16.225 -39.48369,-29.49729 -39.86826,-29.49399 -0.38456,0.003 -5.13312,4.05331 -10.55234,9 -5.41922,4.9467 -10.14422,8.9897 -10.5,8.98446 -0.35578,-0.005 -18.64687,-17.58335 -40.64687,-39.06248 l -40,-39.05294 -0.65173,-5.68753 c -0.35846,-3.12813 -0.51532,-5.83066 -0.34858,-6.00562 0.16674,-0.17495 3.91259,0.79037 8.3241,2.14516 l 8.02092,2.46324 43.55034,-25.20118 c 23.95269,-13.86065 43.79766,-25.44849 44.09993,-25.75076 0.30227,-0.30227 -3.11594,-6.94907 -7.59601,-14.77066 -4.48007,-7.8216 -7.7526,-14.58301 -7.27228,-15.02537 0.48032,-0.44235 65.67331,-21.16389 144.87331,-46.04787 79.2,-24.88397 144.9741,-45.61179 146.16466,-46.06182 1.99155,-0.75281 4.20648,2.43837 27.69716,39.90506 14.04287,22.39781 25.80747,41.43989 26.14355,42.31571 0.50992,1.32881 -1.17805,1.9247 -10.19715,3.59982 -5.94452,1.10407 -45.99504,8.46195 -89.00115,16.35083 -43.00611,7.88887 -78.08665,14.4497 -77.95674,14.5796 0.22381,0.22381 182.06439,-9.85277 436.64961,-24.19667 148.2074,-8.35033 287.1548,-16.23673 333.5,-18.92885 13.75,-0.79872 31.075,-1.72388 38.5,-2.05591 7.425,-0.33203 19.0657,-1.05265 25.8683,-1.60136 10.808,-0.87182 14.5596,-0.75035 13.0484,0.42249 -0.2292,0.17785 -8.6219,6.09128 -18.6504,13.14095 -15.3598,10.79735 -18.1606,13.15 -17.77,14.92664 0.2551,1.15998 2.0851,13.58387 4.0667,27.60866 1.9816,14.02479 3.7604,25.65711 3.9529,25.84961 0.1925,0.1925 12.4177,-11.02052 27.167,-24.91782 14.7494,-13.89731 28.4507,-26.80582 30.4473,-28.68559 l 3.6302,-3.41776 42.2207,45.15174 c 23.2214,24.83346 41.9889,45.38353 41.7056,45.66682 -0.2833,0.28329 -29.0162,11.49625 -63.8509,24.9177 -34.8347,13.42145 -64.725,25.04286 -66.423,25.82536 l -3.0872,1.42272 7.3039,50.84381 c 4.0172,27.96409 7.319,51.6313 7.3373,52.5938 0.018,0.9625 -0.5293,1.69779 -1.2168,1.63397 -0.6875,-0.0638 -201.95,-16.66979 -447.2499,-36.90217 z m 435.4999,29.37574 c 0,-0.35336 -3.1711,-23.13225 -7.0469,-50.61977 -3.8758,-27.48752 -6.9133,-50.06617 -6.75,-50.17477 0.1633,-0.1086 29.7719,-11.38037 65.7969,-25.04836 36.025,-13.668 65.6531,-24.96588 65.8403,-25.10641 0.4697,-0.35269 -69.9671,-76.41572 -70.7278,-76.3773 -0.3369,0.017 -16.1375,14.36826 -35.1125,31.89167 -18.975,17.5234 -34.6239,31.74812 -34.7752,31.61049 -0.1514,-0.13763 -3.1281,-20.35311 -6.615,-44.92327 -3.4868,-24.57016 -6.5591,-44.89245 -6.8273,-45.16063 -0.2682,-0.26819 -199.6074,11.07162 -442.976,25.19958 -243.36873,14.12795 -443.31033,25.37185 -444.31472,24.98643 -1.08364,-0.41584 -1.45322,-1.05568 -0.90894,-1.57365 0.50447,-0.48008 56.26722,-13.79778 123.91722,-29.59488 67.65,-15.7971 123.37329,-29.06034 123.82953,-29.47387 0.92398,-0.83747 -37.57493,-56.5573 -38.95647,-56.38206 -2.91943,0.37032 -273.34183,81.00481 -273.35584,81.50919 -0.009,0.34097 4.48278,6.11479 9.98278,12.83071 5.5,6.71593 10,12.42832 10,12.69421 0,0.26589 -20.04746,10.40711 -44.54991,22.53605 -24.50245,12.12894 -44.41313,22.1894 -44.24595,22.35658 0.16718,0.16718 10.98782,-0.63719 24.04586,-1.78748 13.05804,-1.15029 23.94631,-1.88702 24.19615,-1.63718 0.24985,0.24984 -1.32165,7.18917 -3.49222,15.42072 -2.17056,8.23155 -3.94815,15.12774 -3.9502,15.32487 -0.008,0.76651 -6.11274,-1.29017 -33.74048,-11.36702 -15.75276,-5.74562 -28.78497,-10.303 -28.96045,-10.12753 -0.17548,0.17548 7.44711,7.68746 16.93907,16.69329 9.49197,9.00582 26.79451,25.79076 38.45009,37.29985 l 21.19196,20.92563 11.2994,-9.03418 11.2994,-9.03419 3.50864,2.7864 c 1.92975,1.53251 16.73822,13.37164 32.9077,26.30917 l 29.39907,23.52278 14.82701,-9.9163 c 13.74304,-9.19135 15.17602,-9.91153 19.60094,-9.85096 3.28867,0.045 861.26446,72.09098 879.02386,73.81342 0.6875,0.0667 1.25,-0.16788 1.25,-0.52123 z m -455.4999,-46.38335 -435.00004,-39.789 -13.81137,8.0357 -13.81137,8.0357 -2.68863,-2.46211 c -12.75752,-11.68268 -57.57383,-51.26947 -57.93982,-51.17895 -0.25691,0.0635 -5.86321,4.49549 -12.45845,9.84876 l -11.99136,9.73323 -3.1495,-2.90428 c -3.52788,-3.2532 -33.59051,-31.09968 -35.1495,-32.55837 -0.55,-0.51461 5.4246,2.26859 13.2769,6.18489 l 14.2769,7.12054 1.80532,-4.27015 c 0.99293,-2.34858 3.98465,-9.78265 6.64827,-16.52015 2.66363,-6.7375 5.27937,-12.25 5.81277,-12.25 0.5334,0 12.22247,5.8571 25.97572,13.01578 13.75324,7.15868 25.13457,12.88711 25.29183,12.72984 0.26991,-0.26991 12.41229,-44.52593 12.41229,-45.23978 0,-0.18436 3.42824,-0.65645 7.6183,-1.04909 l 7.6183,-0.7139 -0.5657,-4.12142 c -0.31114,-2.26679 -0.86568,-5.99514 -1.23233,-8.28523 l -0.66662,-4.16379 5.36403,-0.57768 c 6.09984,-0.65693 858.18216,-44.62776 864.42466,-44.60775 l 4.0606,0.013 7.2754,43.25 c 4.0014,23.7875 7.3491,43.98704 7.4393,44.88787 0.099,0.99083 -17.7223,18.13211 -45.1123,43.3904 -24.9019,22.9639 -45.1469,41.88186 -44.9888,42.03993 0.1581,0.15806 4.3324,0.98393 9.2763,1.83526 l 8.9888,1.54788 40.473,-15.45268 c 22.2601,-8.49897 40.75,-15.12552 41.0885,-14.72567 0.6027,0.71186 15.0332,85.5159 14.9704,87.97701 -0.022,0.85273 -1.7005,1.21237 -5.2819,1.13159 -2.8875,-0.0651 -201,-18.02345 -440.2499,-39.9074 z m 315.9999,-20.31716 v -8.84298 l -3.9617,-1.36197 c -2.1789,-0.74908 -4.7221,-2.37008 -5.6515,-3.60221 -0.9294,-1.23214 -4.9803,-11.71491 -9.002,-23.29506 -4.0217,-11.58014 -12.5035,-35.90481 -18.8484,-54.05481 l -11.5364,-33 -13.7527,-0.27824 -13.7527,-0.27823 -1.4708,3.27823 c -0.8089,1.80303 -9.1353,23.87612 -18.503,49.05131 -9.3677,25.17519 -17.9495,47.7245 -19.0706,50.10959 -2.0957,4.45839 -5.1942,6.61734 -9.4972,6.61734 -2.4123,0 -2.453,0.14155 -2.453,8.53138 0,5.91373 0.3836,8.67218 1.25,8.99024 2.1744,0.79816 43.8518,3.03352 44.8665,2.40639 0.5414,-0.33459 0.8403,-4.31605 0.6766,-9.01366 l -0.2931,-8.41435 -4.1634,-0.55573 c -4.7733,-0.63713 -7.3366,-2.38735 -7.3366,-5.0095 0,-1.55039 4.7338,-15.68775 5.6323,-16.82054 0.5493,-0.69262 31.0606,-0.0234 33.9309,0.74423 2.5033,0.6695 3.0572,1.65971 5.319,9.51011 2.8305,9.82399 2.4063,11.94319 -2.483,12.40564 -7.6263,0.7213 -7.3992,0.4212 -7.3992,9.77623 0,6.32178 0.3557,8.64883 1.3823,9.04275 1.7195,0.65983 45.4729,3.24492 51.6177,3.04974 l 4.5,-0.14293 z m -75.75,-55.3855 c -2.0625,-0.21574 -3.75,-0.56614 -3.75,-0.77865 0,-1.38463 10.138,-29.03081 10.9397,-29.83256 1.1952,-1.19523 0.9293,-1.83962 6.5585,15.88996 2.4139,7.60284 4.1628,14.18928 3.8864,14.63653 -0.4956,0.80188 -10.327,0.84911 -17.6346,0.0847 z m -72.9123,52.25809 c 0.1858,-1.63371 0.044,-5.31743 -0.314,-8.18604 l -0.6516,-5.21565 -5.4932,-0.68633 c -4.0291,-0.5034 -5.8571,-1.25339 -6.8588,-2.81396 -1.0823,-1.68613 -1.43,-10.46639 -1.6755,-42.3117 -0.1704,-22.10123 0.014,-40.50739 0.4087,-40.90258 1.309,-1.30893 6.4954,-0.58221 10.5283,1.4752 5.0916,2.59753 10.9999,9.32665 15.2049,17.3171 1.8218,3.46189 3.4257,6.43741 3.5642,6.61227 0.6041,0.76261 15.4504,-5.18888 15.4603,-6.1976 0.01,-0.61618 -3.2038,-10.45783 -7.1331,-21.87033 l -7.1441,-20.75 h -5.9605 c -5.0156,0 -6.0393,0.30131 -6.4575,1.90057 -0.449,1.71695 -1.865,1.95899 -14.6564,2.50523 -7.7877,0.33257 -22.8276,0.71481 -33.422,0.84943 -17.5932,0.22356 -19.3107,0.0931 -19.8174,-1.50523 -0.4366,-1.37731 -1.6856,-1.75 -5.8649,-1.75 -3.0717,0 -5.7131,0.52694 -6.2661,1.25 -0.5257,0.6875 -3.9404,9.92949 -7.5882,20.53776 l -6.6323,19.28777 2.7158,1.06772 c 1.4936,0.58725 5.0838,1.89794 7.9781,2.91265 l 5.2624,1.84491 3.513,-6.97573 c 1.9321,-3.83665 5.3413,-8.80417 7.5761,-11.03893 6.5917,-6.59177 16.8157,-10.11795 18.2791,-6.30436 0.3339,0.86998 0.607,19.26488 0.607,40.87755 0,44.49177 0.5453,41.72701 -8.2903,42.03278 l -5.2097,0.18029 -0.2969,7.3169 c -0.1633,4.02429 0.1219,7.73569 0.6338,8.24755 1.0027,1.00273 40.461,3.62471 51.1631,3.39976 6.4294,-0.13514 6.5037,-0.1689 6.8377,-3.107 z M 992.21741,400.87134 c 0.47644,-37.56523 0.60775,-68.55892 0.2918,-68.87487 -0.86811,-0.86812 -107.99108,5.80279 -109.25932,6.80395 -0.72728,0.57412 -1.32528,10.63311 -1.7609,29.62034 -0.36279,15.81304 -0.9463,37.86349 -1.29669,49.00099 -0.56734,18.03359 -0.46464,20.25 0.93832,20.25 0.86646,0 2.43066,-1.08731 3.47601,-2.41625 1.04534,-1.32894 8.0944,-20.11644 15.66456,-41.75 7.57017,-21.63356 14.06005,-39.6298 14.42196,-39.99164 0.36191,-0.36183 5.42354,-0.97318 11.24808,-1.35855 l 10.59008,-0.70066 16.78204,39.12893 c 9.23012,21.52092 17.65975,40.24476 18.7325,41.60855 1.24972,1.58876 2.96031,2.47962 4.76126,2.47962 2.06956,0 2.9698,0.59334 3.41376,2.25 0.85376,3.18578 0.77414,10.54801 -0.11971,11.06968 -0.4125,0.24075 -10.9875,0.76182 -23.5,1.15794 l -22.75,0.72022 v -6.51102 -6.51102 l 4.01304,-0.678 c 4.07285,-0.68811 6.0771,-2.77752 5.2737,-5.4978 -0.24365,-0.825 -1.36011,-3.8625 -2.48102,-6.75 l -2.03801,-5.25 -7.63385,0.1307 c -4.19862,0.0719 -10.97218,0.40939 -15.05234,0.75 l -7.41848,0.6193 -1.75402,5 c -2.62986,7.4967 -2.44494,10.34575 0.75038,11.5606 1.46267,0.55611 3.60017,0.88247 4.75,0.72525 1.91504,-0.26185 2.11519,0.27062 2.38348,6.3408 l 0.29288,6.62664 -17.45339,0.72712 c -16.70499,0.69594 -17.47807,0.81914 -18.02922,2.87335 -0.80184,2.98857 -0.74826,14.16779 0.0718,14.98789 0.37124,0.37124 25.68374,0.55874 56.25,0.41667 l 55.57505,-0.25832 z m 79.59859,53.86615 c 1.2366,-2.31056 1.3468,-10.026 0.1697,-11.88222 -0.8834,-1.39319 -2.926,-1.98169 -7.3131,-2.10701 -5.0455,-0.14412 -5.8214,-2.09646 -5.8214,-14.64794 v -11.42857 h 13.8635 c 7.6249,0 16.1823,-0.43976 19.0164,-0.97724 12.0375,-2.28286 23.2262,-11.01629 26.528,-20.7067 5.2825,-15.50316 -3.2012,-33.10068 -19.0025,-39.41643 -5.5394,-2.21409 -7.3933,-2.37869 -29.9054,-2.65518 -13.2,-0.16212 -30.3,0.0541 -38,0.48039 l -14,0.77516 -0.2957,6.75 -0.2957,6.75 h 5.0457 c 3.8287,0 5.5639,0.51824 7.1943,2.14861 2.1342,2.13421 2.1449,2.36897 1.6027,35.02382 -0.3949,23.77577 -0.8851,33.28379 -1.7711,34.35139 -0.8023,0.96669 -3.0811,1.47618 -6.6027,1.47618 h -5.3775 v 7 c 0,3.85 0.1125,7.0565 0.25,7.12556 0.1375,0.0691 11.725,0.90824 25.75,1.86484 14.025,0.9566 26.0466,1.80009 26.7148,1.87443 0.6681,0.0743 1.6806,-0.73525 2.25,-1.79909 z m -12.5276,-58.36863 c -0.2749,-0.71658 -0.3733,-7.12908 -0.2186,-14.25 l 0.2814,-12.94711 h 11.3241 11.3242 l 3.9258,4.21128 c 3.437,3.68689 3.9254,4.80757 3.9221,9 -0.01,10.4942 -6.6087,15.23007 -21.2776,15.26676 -6.3092,0.0158 -8.9222,-0.34484 -9.2814,-1.28093 z m -207.29903,29.90988 c 3.22398,-7.09116 5.86179,-13.47173 5.86179,-14.17904 0,-1.11836 -8.88217,-4.42795 -11.88358,-4.42795 -0.59168,0 -1.96519,1.74339 -3.05225,3.87421 -2.24222,4.39513 -6.49734,8.2858 -12.29891,11.24554 -4.43616,2.26316 -18.16833,4.03826 -24.58352,3.1778 l -4.1018,-0.55017 24.96003,-25.60617 24.96003,-25.60618 v -5.91984 -5.91984 l -34.1265,0.61216 c -18.76958,0.33669 -34.22068,0.74274 -34.33577,0.90233 -1.01623,1.40909 -14.53773,24.79667 -14.53773,25.1453 0,0.76558 9.21739,3.6495 11.42814,3.57561 1.27133,-0.0425 3.8698,-2.30066 6.72515,-5.84441 6.53351,-8.10869 11.50561,-10.32609 24.34671,-10.85785 l 10,-0.41411 -25.75,25.88705 c -25.54217,25.67811 -25.75,25.92124 -25.75,30.12419 0,2.47297 0.52045,4.43238 1.25,4.70605 1.5521,0.58223 56.36787,3.02548 67.13821,2.99249 l 7.88821,-0.0242 5.86179,-12.89301 z m 80.60034,-22.06175 c 0.36249,-0.28721 -8.80262,-22.93457 -9.63389,-23.80574 -0.83123,-0.87114 -9.11575,23.34514 -8.40061,24.55562 0.37697,0.63807 17.16372,-0.0599 18.0345,-0.74988 z M 533.1137,384.40789 c -11.60418,-8.37988 -21.1886,-15.68614 -21.29871,-16.23614 -0.15926,-0.79547 39.86193,-5.08448 50.6798,-5.43128 2.09404,-0.0671 2.03574,0.34628 -2.51991,17.86786 -2.56494,9.86511 -4.91084,18.18388 -5.2131,18.48613 -0.30226,0.30226 -10.04389,-6.3067 -21.64808,-14.68657 z m 12.02476,-1.98614 c 0.2757,-0.6875 1.4595,-3.65619 2.63067,-6.59709 l 2.12939,-5.3471 -4.77368,0.55586 c -2.62552,0.30573 -8.28516,0.84006 -12.57696,1.18741 l -7.80329,0.63155 8.80329,5.31554 c 9.42982,5.69385 10.80997,6.20038 11.59058,4.25383 z m -61.13472,5.36819 c 3.70178,-2.3476 4.74816,-3.68558 5.64472,-7.21773 0.60531,-2.38476 0.92408,-4.51241 0.70837,-4.72813 -0.61838,-0.61837 -49.5117,3.15233 -48.9167,3.77251 0.69919,0.72877 34.44905,10.89697 36.46525,10.9863 0.85482,0.0379 3.59908,-1.22795 6.09836,-2.81295 z"
       id="path179" />
       </g>
       
</svg>
