    <svg
      xmlns="http://www.w3.org/2000/svg"
      width="1222.475"
      height="343.885"
      version="1.1"
      viewBox="0 0 1222.475 343.885"
      xmlSpace="preserve"
    >
      <g transform="translate(-282.43 -310.446)">
        <g>
          <path
            fill="#fff"
            fillOpacity="1"
            fillRule="evenodd"
            stroke="#533af4"
            strokeDasharray="none"
            strokeOpacity="1"
            strokeWidth="4.244"
            d="M659.704 319.584c-1.435.094-2.81.47-4.17.914l-271.746 80.564c-.032 1.145-.067 2.29-.096 3.436 6.48 7.915 15.035 20.75 21.516 28.665-29.97 14.835-61.668 30.77-91.638 45.606 1.08 1.079 3.259-1.391 4.338-.312 15.585-1.373 29.727-5.22 45.311-6.592-2.37 8.985-4.739 17.971-7.107 26.957-1.821-.416-3.617-.917-5.35-1.621-18.647-6.8-40.278-10.28-58.925-17.084l-2.978-.48c12.186 11.582 26.6 24.572 38.767 36.171 14.35 14.17 27.387 26.728 41.736 40.898 7.583-6.06 14.872-11.073 22.454-17.134 12.03 9.566 25.886 19.227 37.877 28.843 5.92 4.788 11.594 9.667 17.595 14.357 3.74 2.893 10.833 10.108 10.833 10.108s12.072-7.437 15.964-10.612c1.161-.954 2.245-1.999 3.555-2.754l12.098-7.92c3.255.085 6.907.918 10.157 1.105 290.772 24.526 583.489 49.949 874.26 74.48 1.457.142 1.1-2.05 2.556-1.908-.017-1.855.11-3.72-.27-5.55l-13.644-96.753c43.464-16.487 86.926-32.978 130.389-49.466l2.676-2.016c-24.198-26.154-48.395-52.31-72.594-78.463-.976.092-2.022.017-2.954.214l-67.083 61.95c-2.325-16.535-4.738-33.058-6.998-49.602-1.703-12.723-3.262-25.481-5.899-38.054-.514-.518-1.03-1.035-1.546-1.55-294.331 17.087-588.403 38.318-882.734 55.404l242.375-56.597 3.346-3.035c-13.535-19.394-27.332-42.93-40.87-62.322l-1.201.153zm661.562 82.47l2.373.008c4.755 28.292 9.528 56.582 14.272 84.875l.21 2.114c-30.45 28.08-61.936 57.973-92.385 86.053.874.82 1.673 1.784 2.594 2.514l19.046 3.28c26.7-10.196 54.438-22.204 81.14-32.396 4.75 28.402 9.502 56.803 14.254 85.205.043.666-1.056.135-1.507.283-3.412-.1-6.833-.044-10.227-.457l-867.278-79.33c-8.968 5.218-17.937 10.435-26.904 15.654-7.323-6.735-14.823-13.274-22.229-19.918-12.55-11.188-25.104-22.375-37.654-33.564-.837.263-1.776.322-2.548.716l-22.829 18.532c-9.292-8.567-25.544-19.244-34.82-27.829 6.003 2.995 18.678 9.42 24.68 12.416 2.323-5.514 5.032-12.363 7.17-17.952 2.265-5.73 3.947-9.906 6.213-15.635 2.535 1.208 6.645 3.053 9.163 4.331 14.473 7.535 27.977 14.42 42.45 21.955.659-.7 1.369-2.693 1.952-3.44 4.019-14.795 8.04-29.59 12.063-44.383l15.748-1.479c-.763-5.54-1.483-11.088-2.424-16.603 4.084-.405 8.153-.998 12.26-1.113l851.225-43.848 3.992.011zm-463.594 28.768c-36.069 2.183-72.138 4.367-108.207 6.547l-3.435 2.71c-.446 19.465-.898 39.014-1.34 58.426-.447 14.188-1.279 30.06-1.729 44.247h6.186c1.538-1.989 3.54-5.62 5.03-7.636 9.154-26.152 18.305-52.305 27.456-78.458.466-.748 1.416-.428 2.156-.571l17.323-1.146c11.035 25.733 22.46 52.373 33.498 78.104 1.552 1.978 3.108 3.954 4.664 5.93h5.058c.314 1.346.895 2.657.745 4.065l.02 5.67c-3.234.192-6.515.219-9.766.348-11.077.351-22.543-.206-33.62.145v-9.268c2.45-.414 4.899-.827 7.348-1.242.84-1.642 1.683-3.283 2.525-4.924-.637-2.209-1.267-4.42-2.178-6.536-1.19-3.062-2.376-6.126-3.568-9.188-5.73.118-11.464.153-17.191.326-5.244.437-10.488.876-15.733 1.312-1.335 3.875-2.754 7.734-4.042 11.618-.07 2.393.644 5.693.578 8.086 2.374.905 4.748 1.807 7.123 2.71.837-.116 1.675-.23 2.513-.345l.4 9.063c-11.456.476-23.69.047-35.148.523-.516 2.057-1.17 4.096-1.6 6.164-.01 4.352.24 10 .23 14.352.843.845 1.684 1.687 2.528 2.53l113.95-.53c.588-46.47.919-94.235 1.508-140.704l-2.383-2.383-.899.055zm230.916 17.738c-.207.791-.415 1.582-.62 2.373-9.202.377-18.401.821-27.603 1.157l-36.222.458-1.101-3.48h-13.075c-.904 1.217-1.885 2.394-2.741 3.638-4.654 13.532-9.954 28.62-14.608 42.153 3.946 1.558 7.88 3.145 11.907 4.483 2.52.884 5.04 1.765 7.558 2.65 2.56-5.077 5.763-11.71 8.32-16.79 2.585-2.55 5.115-5.179 7.733-7.681 2.54-1.125 5.058-1.708 7.613-2.765l3.376-.029c.318.819.734 1.62.586 2.524v75.635c-.654.484-1.242 1.138-1.933 1.523-3.83.132-7.66.266-11.49.395-.233 5.789-.47 11.577-.704 17.366 1.006 1.005 1.753 3.307 2.759 4.313 14.917.879 29.834 1.795 44.752 2.652 4.883-.103 9.766-.205 14.648-.309.29-2.676.892-6.636 1.144-9.31-.503-4.037-1.008-8.074-1.513-12.11-3.867-.485-7.733-.968-11.6-1.451-.62-1.032-1.383-2.022-1.913-3.08-.203-26.284-1.055-52.05-1.258-78.334.412-.483 1.169-.099 1.736-.193 1.062.085 2.18-.05 3.206.177 2.354 1.23 4.771 2.38 7.089 3.658 2.49 2.855 5.035 5.674 7.494 8.55 2.21 4.172 5.026 7.853 7.261 12.009.483.606.959 1.218 1.438 1.828 5.956-2.112 11.911-4.228 17.867-6.344-.031-1.386.122-2.803-.023-4.171l-14.802-42.987h-14.888l-.393 1.492zm68.293 1.633c-1.422 3.24-3.003 6.415-4.143 9.77-10.979 29.486-21.935 58.982-32.925 88.463l-3.69 7.845c-1.35.584-2.677 1.282-4.043 1.797h-6.37l-.26 21.754c1.434.484 2.835 1.123 4.288 1.512 14.458.865 28.916 1.726 43.374 2.592 1.155-.716 2.309-1.43 3.465-2.143-.229-6.56-.199-14.415-.428-20.975-3.144-.418-6.288-.837-9.432-1.258l-2.008-1.666c.046-1.14-.191-2.332.377-3.38l4.627-12.694 29.492.365 4.254 1.14 4.489 15.581c-.372.592-.74 1.184-1.112 1.776-2.343.268-4.724.29-7.01.92l-4.117.908-.259 21.3c1.518.54 3 1.239 4.54 1.676 15.374.884 30.748 1.814 46.123 2.667 3.612-.114 7.225-.23 10.837-.342l.26-22.346c-2.898-.994-5.794-1.99-8.69-2.989-.946-1.321-2.039-2.56-2.894-3.93-8.86-25.55-17.74-51.09-26.684-76.61-3.768-10.777-7.534-21.553-11.303-32.329-10.072-.206-20.145-.406-30.217-.613l-.54 1.209zm-245.781-.172c-9.936.55-19.871 1.101-29.807 1.65-.257 5.8-1.157 12.505-1.411 18.304h11.354l3.11 3.111c-.356 21.4-.064 41.894-.418 63.294-.514.535-.931 1.277-1.502 1.688H880.71v18.402c.943.394 1.788 1.139 2.862 1.046 16.955 1.166 33.913 2.29 50.864 3.486l3.33.369 2.946-5.508c-.012-3.238-.023-7.641-.035-10.879-.816-1.283-1.63-2.568-2.443-3.854-1.792-.28-3.56-.78-5.367-.921l-4.163-.118c-.64-.71-1.468-1.338-1.994-2.096v-19.15c8.67-.012 17.345.025 26.013-.018 3.579-.697 7.18-2.103 10.745-2.844 3.888-1.9 7.775-3.803 11.66-5.708 3.055-3.394 6.106-6.79 9.158-10.186 1.127-3.384 2.347-6.752 3.424-10.144-.023-3.748.047-7.513-.034-11.25-1.5-4.08-3.002-8.16-4.499-12.24-3.682-3.61-7.362-7.223-11.04-10.836-4.178-1.667-8.355-3.337-12.53-5.008-16.17-.193-32.339-.405-48.508-.59zm-193.424 11.742c-23.086.415-46.172.83-69.258 1.242-1.72 2.298-2.992 4.888-4.496 7.327-3.737 6.364-8.025 13.826-11.76 20.19v2.89c3.72 1.24 7.428 2.579 11.156 3.763 1.776-.06 3.55-.12 5.326-.178 3.198-3.972 6.947-9.041 10.147-13.011l8.918-4.295 14.485-.6c-16.161 16.246-32.32 32.494-48.483 48.739V540.2c1.437.492 2.838 1.156 4.296 1.544 19.503.847 39.006 1.737 58.51 2.555 5.586-.016 11.173-.034 16.759-.052 4.145-9.116 8.289-19.916 12.435-29.032v-4.507c-4.21-1.203-8.407-2.484-12.623-3.641h-3.562l-4.324 8.477c-2.026 1.665-3.984 3.432-6.052 5.034-2.443 1.218-4.858 2.53-7.317 3.693-5.304.53-10.608 1.124-15.91 1.617L672 525.36c15.904-16.315 31.806-32.63 47.711-48.943v-14.692l-2.035.037zM423.9 481.502l-4.342 16.699-38.676-27.93c15.257-1.354 30.51-2.755 45.769-4.08.528.049 1.603-.339 1.09.542l-3.841 14.769zm511.989-8.157h10.455l6.72 7.21c-.002 2.743.643 4.709.64 7.452l-3.422 5.612-7.503 3.408c-5.25.002-10.53.045-15.762.021-.4-.693-.388-1.46-.331-2.233.161-7.416-.325-14.054-.165-21.47h9.368zm-149.696 7.07c-2.81 8.462-5.62 16.924-8.432 25.385.68 1.15 1.358 2.3 2.04 3.45 6.392-.502 12.785-1 19.177-1.502.706-.561 1.415-1.118 2.123-1.676-3.28-8.202-6.563-16.404-9.846-24.606-1.34-1.402-2.674-2.808-4.011-4.212l-1.051 3.162zm385.111 25.81l4.068 12.812c-4.181-.132-8.37-.158-12.548-.355l-4.65-.487 8.87-25.38 4.26 13.41z"
          ></path>
          <path
            fill="#000"
            d="M665.531 399.807l-2.164.818-2.164.818-144 45.243-144 45.244-.875.804-.873.805 8.147 14.22 8.144 14.22-.549.55-.549.55-43.55 25.2-43.551 25.201-8.022-2.462-8.02-2.463-.304.318-.303.318.653 5.688.652 5.687 40 39.053 40 39.053.647.01.646.01 9.854-8.994 9.853-8.994.7-.006.699-.006 39.168 29.5 39.17 29.5h1.568l12.263-14.75 12.266-14.75.082-.153.084-.152 445.998 36.787h.002l445.998 36.785 1.25.117 1.25.116-.033-1.75-.03-1.75-7.305-50.844-7.305-50.844 3.088-1.422 3.088-1.424 63.334-24.402 63.336-24.402.515-.516.516-.516-42.22-45.15-42.222-45.152-3.63 3.418-3.63 3.418-26.818 25.267-26.816 25.268-.35-.35-.35-.35-3.603-25.5-3.603-25.5-.463-2.109-.465-2.11 18.234-12.816 18.235-12.818.416-.322.416-.324-.55-.55-.546-.546-12.37.996-12.366.998-13.5.604-13.5.603-25 1.453-25 1.451-35.002 1.993-34.998 1.992-61.5 3.492-61.5 3.494-115.5 6.506-115.5 6.508-160.457 8.963-160.457 8.963-.237-.237-.236-.236 78.193-14.344 78.194-14.342 10.806-2.008 10.809-2.007-.611-1.592-.612-1.594-25.531-40.723zm-7.582 15.384l19.455 27.872 19.457 27.869-.83.752-.828.752-123 28.722-123 28.723-.918.873-.918.873 1.826.7 1.827.7 442.488-25.687 442.49-25.688.486.489.489.488 6.34 44.672 6.34 44.674.275.25.275.25 34.5-31.862 34.5-31.86.611-.03.614-.031 35.226 38.076 35.229 38.076-.34.256-.34.256-65.5 24.851-65.5 24.85-.297.197-.297.197 7.047 49.979 7.047 49.976v1.286l-1.25-.122-1.25-.12-436.5-36.813-436.5-36.815-4.773-.064-4.774-.067-14.828 9.916-14.826 9.916-29.399-23.521-29.4-23.523-3.508-2.788-3.51-2.785-11.298 9.034-11.3 9.035-21.19-20.926-21.194-20.926-17.258-16.375-17.258-16.373.319-.32.32-.319 28.64 10.448 28.641 10.445 2.55.64 2.546.64.004-.358.004-.36 3.947-14.966 3.948-14.967-.455-.453-.456-.455-23.74 2.091-23.742 2.092-.305-.304-.304-.303 44.55-22.053 44.551-22.053v-.966l-10-12.211-10-12.211.016-.62.017-.62 136.233-40.39 136.234-40.388.873-.111zm657.254 78.475l-427.5 22.022-427.5 22.021-5.365.578-5.363.576.666 4.164.666 4.164.566 4.121.566 4.122-7.619.714-7.617.713v.672l-6.064 22.309-6.063 22.308-.287.287-.285.286-25.006-13.016-25.006-13.016h-1.94l-4.843 12.25-4.842 12.25-1.806 4.27-1.805 4.271-14.277-7.12-14.276-7.122 1 .936 1 .935 15.5 14.36 15.5 14.36 3.149 2.903 3.15 2.905 11.99-9.733 11.992-9.734.467-.115.467-.116 27.393 24.416 27.392 24.416 2.688 2.463 2.69 2.461 13.81-8.035 13.812-8.035 434.998 39.789h.002l434.998 39.79 5.25.116 5.25.12.033-1.25.031-1.25-7.193-43-7.193-43-.616-.727-.615-.727-40.473 15.451-40.472 15.454-8.99-1.547-8.989-1.55-.287-.286-.287-.287 45.275-41.752 45.278-41.754-.164-1.637-.164-1.639-7.276-43.25-7.275-43.25-4.06-.013zm-459.418 32.775l.574.575.577.574-.868 68.3-.865 68.301-55.576.258-55.574.26-.676-.676-.674-.676.014-6.082.014-6.084.574-2.146.576-2.147 17.453-.726 17.453-.727-.293-6.627-.29-6.627-2.093.286-2.09.287-2.66-1.012-2.658-1.012.076-2.773.078-2.776 1.754-5 1.754-5 7.418-.619 7.42-.619 7.633-.13 7.635-.132 2.037 5.25 2.039 5.25.441 1.5.444 1.5-.852 1.66-.851 1.66-4.014.678-4.012.678V644.89l22.75-.72 22.75-.72.75-.437.75-.438-.014-4.191-.013-4.192-.604-2.25-.603-2.25h-5.621l-1.952-2.478-1.949-2.48-16.783-39.13-16.781-39.128-10.59.7-10.59.7-.658.658-.658.658-13.764 39.334-13.766 39.334-1.9 2.416-1.9 2.416h-3.151l.637-20.25.637-20.25.66-28.75.66-28.752 1.102-.869 1.101-.869 53.791-3.254zm232.73 16.25h11.92l7.145 20.75 7.145 20.75-.012 1.121-.01 1.12-7.6 2.699-7.6 2.697-.25-.318-.251-.319-3.313-6.295-3.312-6.292-3.96-4.499-3.958-4.498-3.975-2.027-3.975-2.027-2.918-.084-2.918-.082-.718.718-.72.72.311 40.183.31 40.183 1.366 2.127 1.365 2.13 5.495.685 5.492.687.652 5.215.65 5.215-.337 2.97-.336 2.971-6.5.137-6.5.137-21.868-1.303-21.865-1.303-.931-.931-.93-.93.297-7.316.297-7.319 5.209-.18 5.209-.18 1.54-1.278 1.542-1.278v-78.592l-.608-1.582-.607-1.582-2.643.022-2.642.023-4.162 1.889-4.163 1.889-4.062 4.064-4.064 4.063-3.512 6.976-3.514 6.975-5.262-1.844-5.261-1.846-2.717-1.068-2.715-1.066 6.63-19.29 6.634-19.287.957-1.25.955-1.25h10.62l.556 1.75.554 1.75 19.262-.244 19.264-.246 14.158-.603 14.16-.606.496-1.9zm68.182 1.944l13.752.28 13.754.276 11.535 33 11.537 33 7.313 21.055 7.31 21.055 1.692 2.24 1.69 2.24 3.96 1.364 3.963 1.36v17.686l-4.5.143-4.5.143-22.867-1.33-22.867-1.333-1.383-.529-1.381-.531V657.73l2.25-.496 2.25-.494 2.898-.273 2.899-.276 1.055-1.683 1.054-1.686-2.525-8.761-2.524-8.764-2.795-.746-2.794-.748-15.415-.192-15.416-.191-.306.387-.305.384-2.664 7.307-2.662 7.309v3.64l1.586 1.317 1.586 1.316 4.164.557 4.164.554.293 8.414.293 8.415-.97.6-.97.599-21.324-1.274-21.322-1.273-1.25-.46-1.25-.458V653.69h4.904l2.504-1.14 2.502-1.14 2.04-4.337 2.038-4.336 17.032-45.773 17.033-45.774 1.47-3.277zm-247.494 1.006l24 .295 24 .294 5.904 2.362 5.907 2.36 5.216 5.12 5.217 5.12 2.127 5.787 2.13 5.789V583.336l-1.595 4.672-1.591 4.672-4.313 4.797-4.312 4.796-5.579 2.733-5.58 2.73-5.152.979-5.152.976h-27.727v22.858l1.57 1.572 1.573 1.57 2.677.077 2.68.076 1.899.357 1.9.358.834 1.316.836 1.316.015 4.317.016 4.314-1.035 1.936-1.035 1.933-1.215-.134-1.215-.135-25.5-1.74-25.5-1.739-.25-.127-.25-.125v-14h10.754l1.225-1.476 1.226-1.475.545-32.877.547-32.875-2.148-2.148-2.149-2.149H880.611l.295-6.75.297-6.75 14-.775zm-193.5 11.746v11.84l-24.96 25.605-24.962 25.607 4.104.55 4.101.55 8.256-.851 8.258-.852 3.967-2.025 3.969-2.024 3.177-2.674 3.176-2.674 1.977-3.873 1.976-3.875h2.153l5.404 1.57 5.404 1.573v2.572L715.84 621.3l-5.861 12.892-7.89.024-7.886.025-29-1.273-29-1.276-1.25-.468-1.25-.47v-8.474l25.75-25.886 25.75-25.887-10 .414-10 .414-4.848 2.334-4.845 2.334-4.655 5.775-4.652 5.776-2.072.07-2.072.068-4.678-1.593-4.678-1.594v-.914l7.164-12.2 7.164-12.199.21-.289.208-.29 34.127-.612zm-287.213.304l-2.144.069-2.143.068-24.369 2.182-24.367 2.182.199 1 .201 1 21.098 15.236 21.098 15.236.55-.549.55-.55 4.663-17.936zm494.713 6.5l-.283 12.948-.281 12.947.5 1.303.5 1.302 8.78-.021 8.782-.022 4.23-1.92 4.23-1.92 2.017-3.308 2.015-3.309.004-4.789.006-4.789-3.925-4.21-3.928-4.212h-11.322zm-509.453 1.307l-2.129 5.346-2.13 5.347-.5 1.25-.503 1.25-1.142-.093-1.143-.094-8.805-5.316-8.802-5.315 7.802-.633 7.805-.63 4.774-.557zm-59.934 4.975l.391.39.393.393-1.1 4.336-1.102 4.336-4.543 2.883-4.544 2.88-1.555-.068-1.553-.068-17.19-5.182-17.189-5.182-.533-.554-.533-.555 24.53-1.805zm432.266 4.197l.725.762.726.76 4.572 11.427 4.575 11.43-.239.187-.238.19-8.664.678-8.662.677-.47-.795-.47-.795 4.073-12.26zm379.555 7.687l-.994.995-.996.996-4.973 14.224-4.97 14.227v.771l3.75.393 3.75.392 6.689.168 6.691.168.502-.812.504-.815-4.389-13.822-4.39-13.824-.586-1.53z"
            transform="translate(0 -89.36)"
          ></path>
        </g>
      </g>
    </svg>